<svg id="Layer_1" data-name="Layer 1" xmlns="http://www.w3.org/2000/svg" xmlns:xlink="http://www.w3.org/1999/xlink" viewBox="0 0 1042.01 934.47"><defs><style>.cls-1{fill:url(#linear-gradient);}.cls-2{fill:#fff;}</style><linearGradient id="linear-gradient" x1="1655.19" y1="921.81" x2="590.88" y2="215.57" gradientUnits="userSpaceOnUse"><stop offset="0" stop-color="#0fa5bd"/><stop offset="0.14" stop-color="#39b2b3"/><stop offset="0.37" stop-color="#77c6a5"/><stop offset="0.57" stop-color="#a7d699"/><stop offset="0.76" stop-color="#cbe291"/><stop offset="0.9" stop-color="#e0e88c"/><stop offset="1" stop-color="#e8eb8a"/></linearGradient></defs><title>h5(2)</title><path class="cls-1" d="M1509.53,461.41c-46-61.59-50.87-163.12-141.56-267.6-89.45-103-219.45-169.18-410.52-132.54-40.82,7.83-82.75,26.52-123.08,51a187.72,187.72,0,0,1,82.24,156.15C916.19,372.22,831.73,456,728,455.57A187.66,187.66,0,0,1,575,375.81c-90.13,179.34-21.62,384.5,114.31,461.75,137.82,78.33,235.19,60.23,438.9,121.24,174.38,52.23,351.31,44.51,424.73-176.27C1591.64,666.28,1585.35,562.88,1509.53,461.41Z" transform="translate(-534.23 -51.06)"/><path class="cls-2" d="M679.35,712.19c-4.2-4-6.65-15.59-6.65-15.59s-2.46,11.56-6.66,15.59-13.31,6.13-13.31,6.13,9.11,2.1,13.31,6.13S672.7,740,672.7,740s2.45-11.56,6.65-15.58,13.31-6.13,13.31-6.13S683.55,716.21,679.35,712.19Z" transform="translate(-534.23 -51.06)"/><path class="cls-2" d="M1379.39,403.5c-4.2-4-6.65-15.58-6.65-15.58s-2.46,11.56-6.66,15.58-13.31,6.13-13.31,6.13,9.11,2.11,13.31,6.13,6.66,15.59,6.66,15.59,2.45-11.56,6.65-15.59,13.31-6.13,13.31-6.13S1383.6,407.53,1379.39,403.5Z" transform="translate(-534.23 -51.06)"/><path class="cls-2" d="M950.62,135.54c-4.2-4-6.65-15.59-6.65-15.59s-2.45,11.56-6.66,15.59-13.3,6.13-13.3,6.13,9.1,2.1,13.3,6.13S944,163.38,944,163.38s2.45-11.56,6.65-15.58,13.31-6.13,13.31-6.13S954.83,139.56,950.62,135.54Z" transform="translate(-534.23 -51.06)"/><path class="cls-2" d="M883.15,769.92c-2.61-2.49-4.12-9.65-4.12-9.65s-1.52,7.16-4.12,9.65-8.24,3.79-8.24,3.79,5.64,1.3,8.24,3.79,4.12,9.65,4.12,9.65,1.51-7.15,4.12-9.65,8.23-3.79,8.23-3.79S885.75,772.41,883.15,769.92Z" transform="translate(-534.23 -51.06)"/><path class="cls-2" d="M981.54,167.35c-2.07-2-3.27-7.67-3.27-7.67s-1.21,5.69-3.28,7.67-6.54,3-6.54,3,4.47,1,6.54,3,3.28,7.67,3.28,7.67,1.2-5.69,3.27-7.67,6.55-3,6.55-3S983.61,169.33,981.54,167.35Z" transform="translate(-534.23 -51.06)"/><path class="cls-2" d="M700.37,566.41c-2.47-2.37-3.91-9.16-3.91-9.16s-1.44,6.79-3.91,9.16-7.82,3.6-7.82,3.6,5.35,1.23,7.82,3.6,3.91,9.16,3.91,9.16,1.44-6.79,3.91-9.16,7.83-3.6,7.83-3.6S702.84,568.78,700.37,566.41Z" transform="translate(-534.23 -51.06)"/><path class="cls-2" d="M1512.56,713.12c-2.47-2.37-3.91-9.16-3.91-9.16s-1.44,6.79-3.91,9.16-7.82,3.61-7.82,3.61,5.35,1.23,7.82,3.6,3.91,9.16,3.91,9.16,1.44-6.8,3.91-9.16,7.82-3.6,7.82-3.6S1515,715.49,1512.56,713.12Z" transform="translate(-534.23 -51.06)"/><path class="cls-2" d="M1003.88,872.65c-2.48-2.36-3.92-9.15-3.92-9.15s-1.44,6.79-3.91,9.15-7.82,3.61-7.82,3.61,5.35,1.23,7.82,3.6S1000,889,1000,889s1.44-6.79,3.92-9.16,7.82-3.6,7.82-3.6S1006.34,875,1003.88,872.65Z" transform="translate(-534.23 -51.06)"/><path class="cls-2" d="M1221.94,213.37c-2.48-2.36-3.91-9.16-3.91-9.16s-1.44,6.8-3.92,9.16-7.82,3.6-7.82,3.6,5.35,1.24,7.82,3.61,3.92,9.16,3.92,9.16,1.43-6.8,3.91-9.16,7.82-3.61,7.82-3.61S1224.41,215.74,1221.94,213.37Z" transform="translate(-534.23 -51.06)"/><path class="cls-2" d="M886.27,458.6a3.71,3.71,0,1,1-3.71-3.7A3.71,3.71,0,0,1,886.27,458.6Z" transform="translate(-534.23 -51.06)"/><path class="cls-2" d="M1089,110.12a3.7,3.7,0,1,1-3.7-3.7A3.7,3.7,0,0,1,1089,110.12Z" transform="translate(-534.23 -51.06)"/><path class="cls-2" d="M1136.39,224.72a3.71,3.71,0,1,1-3.71-3.7A3.71,3.71,0,0,1,1136.39,224.72Z" transform="translate(-534.23 -51.06)"/><path class="cls-2" d="M592.52,526.44a3.71,3.71,0,1,1-3.7-3.7A3.7,3.7,0,0,1,592.52,526.44Z" transform="translate(-534.23 -51.06)"/><path class="cls-2" d="M1547.66,584.73a3.71,3.71,0,1,1-3.7-3.7A3.71,3.71,0,0,1,1547.66,584.73Z" transform="translate(-534.23 -51.06)"/><path class="cls-2" d="M767.52,674.83a3.7,3.7,0,1,1-3.7-3.7A3.71,3.71,0,0,1,767.52,674.83Z" transform="translate(-534.23 -51.06)"/><path class="cls-2" d="M766.69,523.84a3.71,3.71,0,1,1-3.7-3.7A3.7,3.7,0,0,1,766.69,523.84Z" transform="translate(-534.23 -51.06)"/><path class="cls-2" d="M759.52,821.07a3.7,3.7,0,1,1-3.7-3.7A3.69,3.69,0,0,1,759.52,821.07Z" transform="translate(-534.23 -51.06)"/><path class="cls-2" d="M923.51,860.07a3.7,3.7,0,1,1-3.7-3.7A3.7,3.7,0,0,1,923.51,860.07Z" transform="translate(-534.23 -51.06)"/><path class="cls-2" d="M1340.86,327.37a3.7,3.7,0,1,1-3.7-3.7A3.69,3.69,0,0,1,1340.86,327.37Z" transform="translate(-534.23 -51.06)"/><path class="cls-2" d="M1102.22,909.78a3.7,3.7,0,1,1-3.7-3.7A3.71,3.71,0,0,1,1102.22,909.78Z" transform="translate(-534.23 -51.06)"/></svg>