<svg xmlns="http://www.w3.org/2000/svg" viewBox="0 0 877.94 960"><defs><style>.cls-1{isolation:isolate;}.cls-2{fill:#c1282d;}.cls-3{fill:#ed2224;}.cls-13,.cls-4{fill:#010101;}.cls-5{fill:#37b776;}.cls-11,.cls-6{fill:#c6de82;}.cls-7{fill:#fff;}.cls-8{fill:#f7adba;}.cls-9{fill:#bdbbbb;}.cls-10{fill:#5e3428;}.cls-11{opacity:0.61;}.cls-12{fill:#231f20;}.cls-13{font-size:32.58px;font-family:Montserrat-Bold, Montserrat;font-weight:700;letter-spacing:0.07em;}.cls-14{letter-spacing:0.06em;}.cls-15{fill:#8ec96f;}.cls-15,.cls-16{stroke:#3db54a;stroke-miterlimit:10;stroke-width:6px;}.cls-16{fill:#c3e1b5;}.cls-17{fill:#d3d3d3;opacity:0.45;mix-blend-mode:overlay;}.cls-18{fill:#fffffd;}.cls-19{fill:#d61f2b;}.cls-20{fill:#b01f24;}.cls-21{fill:#cfd0ce;}.cls-22{fill:#f8e139;}.cls-23{fill:#31201b;}.cls-24{fill:#f58982;}.cls-25{fill:#5c3d39;}</style></defs><title>h5(3)</title><g class="cls-1"><g id="Layer_1" data-name="Layer 1"><path class="cls-2" d="M991.3,491.06c2.55-2.74,35.78-34.24,93.55-38.85,43.15-3.46,87.61,1.73,138,21.63,58.21,23,73.76,43.18,74.5,52.69s-162,51.11-162,51.11Z" transform="translate(-522.19 -42.89)"/><path class="cls-3" d="M1136.67,578.33l-131-78.75a181.62,181.62,0,0,1,73.55-21.89c47.2-3.77,95.81,1.9,150.94,23.66,29.7,11.73,49.25,22.79,61.73,32.32C1244.43,550.79,1136.67,578.33,1136.67,578.33Z" transform="translate(-522.19 -42.89)"/><path class="cls-4" d="M1135.33,583.27a5.64,5.64,0,0,1-2.9-.81l-144-86.58a5.62,5.62,0,0,1-1.22-8.65c.33-.36,34.73-35.64,97.22-40.63,8.36-.67,16.73-1,24.88-1,38.58,0,76.41,7.53,115.66,23,68.5,27,77.4,49.21,78,57.48.41,5.16-4.7,8-10,10.46-4.33,2-10.66,4.48-18.81,7.3-13.5,4.66-32.35,10.46-56,17.21-40.21,11.48-81,21.93-81.45,22A5.47,5.47,0,0,1,1135.33,583.27ZM1000.79,490.2l135.42,81.4c8.67-2.23,40.81-10.58,73.67-19.88,60.29-17.06,76.85-24.21,81.39-26.86-3-8.32-20.36-26-70.47-45.78-37.9-15-74.38-22.24-111.52-22.24-7.85,0-15.92.33-24,1C1041.4,461.33,1012.19,481,1000.79,490.2Z" transform="translate(-522.19 -42.89)"/><path class="cls-5" d="M1258.91,353.88c-23.39-24.43-68.75-30.65-91.68-4.65-18.26,20.72-8.56,43.23-3.91,50.24,4.91,7.4,13.65,19.52,39.28,14.75,0,0-6.61,17.9-27.51,28.57-19.34,9.87-26.12,11-26.12,11l6.87,37.36s46.13,11.65,90.84-30.67C1282.74,426.35,1281.13,377.08,1258.91,353.88Z" transform="translate(-522.19 -42.89)"/><path class="cls-6" d="M1257.31,351.4c-22.67-23.67-65.09-27.66-87.93-4.47,21.39-10.45,49.76-8.92,68.86,11,28.74,30,28.26,68.48-5.55,99.57-29.35,27-60.49,30.46-77.44,30.44l.59,3.22s46.13,11.65,90.84-30.67C1282.74,426.35,1279.53,374.6,1257.31,351.4Z" transform="translate(-522.19 -42.89)"/><path class="cls-4" d="M1162.46,502.93a5.63,5.63,0,0,1-.16-11.26c.49,0,48.77-1.85,80.3-35.06,31-32.67,36.18-72.09,12.82-98.08-12-13.4-28.09-21.4-44-22a47.36,47.36,0,0,0-34.94,13.2c-7,6.82-10.42,15.64-10,26.21a47.45,47.45,0,0,0,5,19.51c5.47,9.59,16.62,14.69,30.64,14a5.63,5.63,0,1,1,.56,11.24c-18.4.91-33.34-6.25-41-19.66-5-8.82-14.51-38.66,6.94-59.38a58.52,58.52,0,0,1,43.16-16.36c19,.67,37.94,10,52,25.68,13,14.52,19,33.64,16.87,53.85-2.22,20.67-12.55,41.25-29.9,59.51-34.8,36.66-86,38.51-88.14,38.57Z" transform="translate(-522.19 -42.89)"/><path class="cls-4" d="M1149,459.43a5.63,5.63,0,0,1-.91-11.19c.28,0,18.88-3.34,35.83-19.44,19.41-18.43,21.72-36.08,21.74-36.26a5.63,5.63,0,0,1,11.19,1.24c-.09.87-2.56,21.71-25.18,43.18-19.63,18.64-40.87,22.25-41.77,22.39A5.47,5.47,0,0,1,1149,459.43Z" transform="translate(-522.19 -42.89)"/><path class="cls-5" d="M891.37,563.84c54.66,132.76,153.14,101,211.76,45.46,39.63-37.52,67-53.09,75.16-90.54,9.06-41.81,4.11-106.23-74.67-160.12-38.28-26.19-168-76.28-249.85,1.09C787.91,422,851.67,467.4,891.37,563.84Z" transform="translate(-522.19 -42.89)"/><path class="cls-4" d="M1000.05,662.89h0c-22.83,0-43.79-7.45-62.3-22.13-20.49-16.25-37.84-41.41-51.58-74.78-10.79-26.2-23.5-48.81-34.71-68.76-15.07-26.82-28.09-50-31.11-72.43-3.35-24.94,6-46.92,29.56-69.15a161.75,161.75,0,0,1,57-35,184.48,184.48,0,0,1,62.26-10.34c27.85,0,57.74,5.62,86.44,16.26,25.41,9.42,49.52,22.71,67.9,37.41,29.93,23.93,49.63,51.4,58.57,81.63,6.84,23.14,7.42,48.17,1.74,74.39-6.7,30.92-25.86,47.86-52.38,71.31-7.34,6.49-15.67,13.85-24.41,22.13C1073.77,644.85,1034.79,662.89,1000.05,662.89ZM969.14,321.51c-44.29,0-81.81,14.24-111.5,42.31-44.57,42.13-26.42,74.41,3.63,127.89,11.37,20.23,24.26,43.16,35.31,70,24.22,58.84,60,89.94,103.47,89.94h0c31.89,0,68-16.92,99.21-46.41,8.88-8.41,17.28-15.84,24.69-22.39,25.85-22.85,42.92-38,48.84-65.27,12.23-56.42-6.72-105.16-56.34-144.84C1086.92,349.1,1030.62,321.51,969.14,321.51Z" transform="translate(-522.19 -42.89)"/><path class="cls-5" d="M708.89,203.33S733.56,91.8,768.31,92.71c22.49.6,41.12,27.31,52.54,52.9l-11.93,49.74Z" transform="translate(-522.19 -42.89)"/><path class="cls-4" d="M708.64,197.75a5.41,5.41,0,0,1-1.37-.17,5.63,5.63,0,0,1-4.1-6.82,383.22,383.22,0,0,1,17.09-50.88c14.84-35,30.85-52.8,47.57-52.8h.63c28.55.75,48.3,35.55,57.53,56.22a5.63,5.63,0,1,1-10.28,4.59c-13.66-30.61-31.44-49.14-47.55-49.56h-.31c-11.45,0-24.64,16.24-37.18,45.82a380.65,380.65,0,0,0-16.58,49.32A5.62,5.62,0,0,1,708.64,197.75Z" transform="translate(-522.19 -42.89)"/><path class="cls-6" d="M797.89,149.65C791.12,137.82,780,122.83,767,122.49c-16.66-.44-30.16,46.31-32.86,56.31A166.15,166.15,0,0,1,797.89,149.65Z" transform="translate(-522.19 -42.89)"/><path class="cls-6" d="M647.89,307c-5.95,40.7,47.29,109.8,150.76,129.47s203.35,15.51,218.46-64S1037.31,162,875.45,131.23C727.67,103.14,659.62,227,647.89,307Z" transform="translate(-522.19 -42.89)"/><path class="cls-5" d="M875.45,131.23c161.86,30.78,158.39,164.39,143.27,243.88-1.53,8.06-69.16,34.87-151.4.71-47.06-19.54-59.38-45.64-93-53.84-26.69-6.52-42.06,13.27-82.49,2.14-13.94-3.83-36.88-17.47-38.65-42.61C667.5,195.68,748.36,107.07,875.45,131.23Z" transform="translate(-522.19 -42.89)"/><path class="cls-4" d="M887.74,453.69h0c-34,0-72.73-5.94-109.17-16.72-42.45-12.57-77.5-31.32-101.34-54.22-26.53-25.5-38.09-55.38-33.43-86.44,6.35-42.24,25.46-84.1,52.43-114.84a175.6,175.6,0,0,1,56.33-43.13c23.72-11.34,50.2-17.09,78.7-17.09a243.74,243.74,0,0,1,45.25,4.45c32,6.08,59.64,16.9,82.21,32.16A158.6,158.6,0,0,1,1007.65,210c33.16,57.12,27.58,128.08,11.31,175.43-8.17,23.77-25.09,41.69-50.29,53.28C947,448.65,919.78,453.69,887.74,453.69ZM831.25,132.51c-119.57,0-167.1,104-176.33,165.48-9.6,64,59.22,108.17,126.84,128.19,35.42,10.48,73.06,16.26,106,16.26,45.5,0,103.35-10.53,120.58-60.67,15.47-45,20.86-112.29-10.39-166.13-24-41.32-65.54-67.85-123.52-78.88A232.43,232.43,0,0,0,831.25,132.51Z" transform="translate(-522.19 -42.89)"/><path class="cls-6" d="M848,278.3c.3,5.36,9.3,9.21,20.09,8.59s19.27-5.46,19-10.83-9.3-9.21-20.09-8.59S847.65,272.93,848,278.3Z" transform="translate(-522.19 -42.89)"/><path class="cls-6" d="M753.69,249.07c-3.35,4.2-12.91,2.14-21.36-4.6s-12.57-15.6-9.21-19.8,12.91-2.14,21.35,4.6S757,244.87,753.69,249.07Z" transform="translate(-522.19 -42.89)"/><path class="cls-5" d="M1013.6,272.58s46.75-103,17.81-122.26c-18.73-12.47-49.83-1.48-73.91,12.87l-18.89,47.54Z" transform="translate(-522.19 -42.89)"/><path class="cls-4" d="M1022.47,271.46a5.5,5.5,0,0,1-2.06-.39,5.62,5.62,0,0,1-3.18-7.3,378.61,378.61,0,0,0,15.09-49.8c7-31.65,5.55-52.59-4-59-13.62-9.07-39-4.21-67.91,13a5.63,5.63,0,0,1-5.76-9.67c15.71-9.36,54.94-29.33,79.91-12.71,14.13,9.4,17.07,33.25,8.75,70.88a382.53,382.53,0,0,1-15.58,51.38A5.62,5.62,0,0,1,1022.47,271.46Z" transform="translate(-522.19 -42.89)"/><path class="cls-6" d="M1012.23,231.71c5.44-16.79,14-48.86,2.63-56.4-10.09-6.72-26.12-2.13-38.25,3.19A146.26,146.26,0,0,1,1012.23,231.71Z" transform="translate(-522.19 -42.89)"/><path class="cls-4" d="M892.66,327.76a26.79,26.79,0,1,1-21.47-31.22A26.8,26.8,0,0,1,892.66,327.76Z" transform="translate(-522.19 -42.89)"/><path class="cls-7" d="M851.91,315.16a11.58,11.58,0,1,0,14.61-7.39A11.58,11.58,0,0,0,851.91,315.16Z" transform="translate(-522.19 -42.89)"/><path class="cls-7" d="M866.25,335.58a4.86,4.86,0,1,0,6.14-3.11A4.87,4.87,0,0,0,866.25,335.58Z" transform="translate(-522.19 -42.89)"/><path class="cls-4" d="M690.43,271.49A26.8,26.8,0,1,0,721.65,250,26.79,26.79,0,0,0,690.43,271.49Z" transform="translate(-522.19 -42.89)"/><path class="cls-7" d="M705.06,265.63a11.58,11.58,0,1,0,15.85-4.11A11.57,11.57,0,0,0,705.06,265.63Z" transform="translate(-522.19 -42.89)"/><path class="cls-7" d="M714.72,288.63a4.86,4.86,0,1,0,6.65-1.72A4.85,4.85,0,0,0,714.72,288.63Z" transform="translate(-522.19 -42.89)"/><path class="cls-4" d="M758.68,321.62c-2,7.28,12.22,18.71,12.22,18.71s18-2.68,20-10-5-9.69-13.9-12.1S760.65,314.33,758.68,321.62Z" transform="translate(-522.19 -42.89)"/><path class="cls-4" d="M770.9,346a5.69,5.69,0,0,1-3.53-1.24c-4-3.23-16.85-14.52-14.12-24.58,1-3.55,3.92-9.5,13-9.5,3.87,0,8.18,1.09,12.26,2.2,4.78,1.29,9.34,2.65,12.77,5a12.19,12.19,0,0,1,5.09,14c-2.73,10.06-19.54,13.3-24.62,14.06A5.79,5.79,0,0,1,770.9,346Zm-4.67-24.06c-1.8,0-1.85.2-2.12,1.19-.21,1.8,3.81,7.06,8.42,11.23,6.17-1.27,12.21-3.75,13-5.47.27-1,.24-1.1-.66-1.74-2-1.35-5.82-2.47-9.3-3.41C772.34,322.83,768.71,321.9,766.23,321.9Z" transform="translate(-522.19 -42.89)"/><path class="cls-8" d="M766.37,355.57s2.78,13.79,13.49,11.92c13.31-2.33,9-15,9-15" transform="translate(-522.19 -42.89)"/><path class="cls-4" d="M777.88,370.48c-8.92,0-13.21-9.11-14.27-14.35a2.82,2.82,0,0,1,5.52-1.12h0c.09.45,2.39,11.08,10.24,9.71,3.1-.54,5.24-1.77,6.34-3.63,1.92-3.24.5-7.67.49-7.71a2.81,2.81,0,0,1,5.33-1.81c.09.28,2.28,6.89-1,12.39-2,3.34-5.41,5.46-10.21,6.3A14.22,14.22,0,0,1,777.88,370.48Z" transform="translate(-522.19 -42.89)"/><path class="cls-4" d="M773.49,358.75a38.36,38.36,0,0,1-5.7-.43A31.27,31.27,0,0,1,749,348.46a2.82,2.82,0,1,1,4.37-3.55,26,26,0,0,0,15.28,7.84c12.92,1.93,20.81-4.3,21.14-4.57a2.83,2.83,0,0,1,4,.41,2.8,2.8,0,0,1-.39,3.94C793,352.82,785.62,358.75,773.49,358.75Z" transform="translate(-522.19 -42.89)"/><path class="cls-3" d="M1241.66,707.86c68.53,28.64,168.36,110.4,150.79,152.45s-145.9,28.46-214.42-.17-74.18-71-56.61-113.09S1173.14,679.22,1241.66,707.86Z" transform="translate(-522.19 -42.89)"/><path class="cls-4" d="M1316.34,892.61c-45,0-101.44-11-140.49-27.28-33.28-13.91-54.7-32.29-63.63-54.62-7.63-19.05-6.28-41.2,4-65.83,15.18-36.34,39.93-54.76,73.56-54.76,15.93,0,34.11,4.22,54,12.55,35.18,14.7,78.1,43.07,109.36,72.28,17.06,15.94,29.73,31.1,37.65,45,9.38,16.54,11.67,30.84,6.81,42.48C1387.24,887.38,1347.69,892.61,1316.34,892.61ZM1189.79,701.37c-29.06,0-49.72,15.65-63.17,47.85-9.25,22.12-10.54,40.86-3.95,57.31,7.77,19.42,27.13,35.71,57.53,48.42,37.79,15.79,92.5,26.4,136.14,26.4,38.91,0,64.76-8.46,70.92-23.21,6.87-16.43-8.36-43.75-41.76-75-30.35-28.37-72-55.89-106-70.11C1220.94,705.3,1204.22,701.37,1189.79,701.37Z" transform="translate(-522.19 -42.89)"/><path class="cls-2" d="M1236.28,725.45c23.31,9.75,108,69.47,97.33,95s-112.68,7.25-136-2.49c-41.63-17.4-48.34-44.53-37.67-70.09S1194.65,708.06,1236.28,725.45Z" transform="translate(-522.19 -42.89)"/><path class="cls-3" d="M1215.54,602.06c31.82,16.44,33.64,102.14-9,184.67S1093,917.35,1061.13,900.91s-23-96.66,19.6-179.19S1183.73,585.62,1215.54,602.06Z" transform="translate(-522.19 -42.89)"/><path class="cls-4" d="M1075.55,909.75a36.58,36.58,0,0,1-17-3.84c-17.6-9.09-25.11-34.1-21.13-70.42,3.77-34.52,17.38-75.84,38.31-116.35,38.23-74,90.46-125.67,127-125.67a33.26,33.26,0,0,1,15.39,3.59c17.8,9.2,27.44,35.7,26.46,72.7-1,37.79-12.74,80.25-33,119.55-17.54,34-41.47,65-67.37,87.26C1119.32,898,1095,909.75,1075.55,909.75Zm127.19-305c-14.82,0-34.54,11.53-55.53,32.48-21.94,21.9-43.78,52.83-61.48,87.1-20.31,39.31-33.5,79.23-37.13,112.4-3.38,30.92,2.13,52.49,15.12,59.2a25.58,25.58,0,0,0,11.83,2.58c16.47,0,38.8-11.1,61.27-30.45,24.84-21.39,47.82-51.18,64.72-83.9,19.55-37.82,30.84-78.55,31.8-114.68.84-31.56-7-55.47-20.38-62.4A22,22,0,0,0,1202.74,604.73Z" transform="translate(-522.19 -42.89)"/><path class="cls-7" d="M786,400.9c-113.47-22.27-236.3,2.69-254.65,36.72h0a1.74,1.74,0,0,0-.1.19c0,.07-.07.13-.1.19h0C514,472.67,564.72,587.29,648.54,667c75.29,71.56,394.33,244.79,394.33,244.79s81.39-51.74,128.62-143.14c52.1-100.84,42.32-187.72,42.32-187.72S887.94,420.91,786,400.9Z" transform="translate(-522.19 -42.89)"/><path class="cls-9" d="M655.54,635.05C591.13,575.84,544,499.06,528.4,447.31,522,490,571.12,593.37,648.54,667c75.29,71.56,394.33,244.79,394.33,244.79A310.55,310.55,0,0,0,1071,890.62C1025.38,865.73,730.35,703.8,655.54,635.05Z" transform="translate(-522.19 -42.89)"/><path class="cls-4" d="M1042.87,917.38a5.68,5.68,0,0,1-2.69-.68c-.26-.14-26.49-14.39-65-36a5.62,5.62,0,0,1-.74-9.32c29.29-23.18,83.84-72.52,120-142.55,39.25-76,46.86-145.22,47.9-179.74a5.62,5.62,0,0,1,8-4.91c39.3,18.62,65.62,31.53,65.88,31.66a5.62,5.62,0,0,1,3.12,4.42c.1.91,2.47,22.76-1.63,57.34a395.6,395.6,0,0,1-41.29,133.6c-24.77,47.93-58.91,84.85-83.19,107.38C1067,903,1046.73,916,1045.88,916.5A5.53,5.53,0,0,1,1042.87,917.38ZM988,875c27.29,15.28,47.35,26.27,54.61,30.23a383.19,383.19,0,0,0,43.27-35c23.56-21.88,56.68-57.72,80.65-104.11a384.19,384.19,0,0,0,40.06-129.36c3.14-26.19,2.4-45.09,1.92-52.13-7.18-3.5-27.37-13.32-55.2-26.55-2.06,37.6-11.53,103.89-48.79,176C1069.87,801,1019,849.44,988,875Z" transform="translate(-522.19 -42.89)"/><path class="cls-4" d="M1042.87,917.38a5.68,5.68,0,0,1-2.69-.68c-.8-.43-80.86-44-169.09-95.65C752.38,751.48,676.2,701,644.66,671c-38.82-36.9-74.45-85.36-97.73-133-10.6-21.66-18.19-42.3-22-59.69-4-18.47-3.69-32.75.94-42.47.07-.17.15-.35.24-.52a1,1,0,0,1,.09-.17,1.51,1.51,0,0,1,.11-.22c.08-.15.17-.31.26-.45,9.62-17.21,38-28.17,60.27-34.35,31.11-8.64,70-13.4,109.42-13.4a472.34,472.34,0,0,1,90.78,8.57c42.7,8.38,127.94,41.31,253.37,97.89,93.21,42,175,82.17,175.84,82.57a5.62,5.62,0,0,1,3.12,4.42c.1.91,2.47,22.76-1.63,57.34a395.6,395.6,0,0,1-41.29,133.6c-24.77,47.93-58.91,84.85-83.19,107.38C1067,903,1046.73,916,1045.88,916.5A5.53,5.53,0,0,1,1042.87,917.38Zm-506.62-477-.06.11c-14.86,30.06,31.29,141.64,116.22,222.37,70,66.57,357.63,224.53,390.16,242.3a383.19,383.19,0,0,0,43.27-35c23.56-21.88,56.68-57.72,80.65-104.11,45.37-87.81,43-165.45,42-181.49C1176,568.72,879.91,425.07,784.91,406.42a461.91,461.91,0,0,0-88.61-8.35c-38.47,0-76.25,4.61-106.4,13-28.28,7.86-47.82,18.51-53.6,29.23Z" transform="translate(-522.19 -42.89)"/><path class="cls-3" d="M624,641.49c25.26-21,63.43-58.35,89.79-109.38,28.35-54.86,36.39-105.13,38.31-136.4C650.21,384.29,547.87,407,531.35,437.62h0a1.74,1.74,0,0,0-.1.19c0,.07-.07.13-.1.19h0C515.77,469.11,556.19,565.17,624,641.49Z" transform="translate(-522.19 -42.89)"/><path class="cls-2" d="M532.81,435.28a23.69,23.69,0,0,0-1.46,2.34h0a1.74,1.74,0,0,0-.1.19c0,.07-.07.13-.1.19h0c-15.38,31.1,25,127.16,92.81,203.48,6.16-5.13,13.09-11.23,20.42-18.26C589.64,567.83,545.9,486.11,532.81,435.28Z" transform="translate(-522.19 -42.89)"/><path class="cls-4" d="M709,546.75a5.32,5.32,0,0,1-1.66-.26c-29.84-9.25-76.57-33.93-110.36-53.95-19.2-11.37-36.36-22.5-48.32-31.33-18.34-13.55-21.75-19.29-20.85-24.23,0-.18.07-.36.11-.54l0-.11s0-.05,0-.07a5.77,5.77,0,0,1,.36-1c1.51-3.59,5.94-7.66,24.13-11.28,12.72-2.53,29.69-4.36,49.07-5.28a696.86,696.86,0,0,1,145.81,9,5.62,5.62,0,1,1-1.89,11.09,691.27,691.27,0,0,0-139-9.06c-40,1.59-60.32,6.47-66.41,9.44,5.15,6.1,25.62,22,67.18,46.33,40.76,23.84,80.4,43.09,103.44,50.23a5.63,5.63,0,0,1-1.67,11Z" transform="translate(-522.19 -42.89)"/><path class="cls-4" d="M624,647.12a5.61,5.61,0,0,1-4.21-1.89c-32.41-36.5-60.29-79.16-78.52-120.15-10.45-23.49-26.26-66.17-15.32-89.16.07-.17.15-.35.24-.52l.09-.17a2.26,2.26,0,0,1,.11-.22c.08-.15.17-.31.26-.45,9.62-17.2,38.4-28.11,60.94-34.25,31.33-8.53,70.41-13.23,110.05-13.23a497.47,497.47,0,0,1,55.08,3,5.63,5.63,0,0,1,5,5.94c-2,32.78-10.39,83.44-38.92,138.65-26.37,51-64.15,88.6-91.19,111.12A5.63,5.63,0,0,1,624,647.12ZM536.25,440.4l-.06.11c-6.68,13.5-1,43.41,15.32,80,16.84,37.84,43.3,78.79,73,113.12,25.85-22.15,60-57.31,84.2-104.1a340.57,340.57,0,0,0,37.31-128.8c-15.87-1.59-32.14-2.4-48.46-2.4-38.67,0-76.7,4.56-107.09,12.84-28.68,7.81-48.44,18.43-54.21,29.12Z" transform="translate(-522.19 -42.89)"/><path class="cls-2" d="M871.3,766c-.76,3.66-7.23,49,22.43,98.77,22.15,37.2,52.11,70.46,97.5,100.06,52.42,34.18,77.9,35.18,86.09,30.28s-52.08-161.74-52.08-161.74Z" transform="translate(-522.19 -42.89)"/><path class="cls-3" d="M1025.24,833.38l-128-56a166,166,0,0,0,22.59,66.44c22.15,37.2,52.11,70.45,97.5,100.05,24.46,15.95,43,24.67,56.76,28.94C1061.72,928.32,1025.24,833.38,1025.24,833.38Z" transform="translate(-522.19 -42.89)"/><path class="cls-10" d="M1067.28,1002.89c-12.77,0-36.86-5.78-79.12-33.34-43-28.06-74.58-60.44-99.26-101.89-32.09-53.87-23.21-102.32-23.11-102.8a5.63,5.63,0,0,1,7.76-4l154,67.38a5.61,5.61,0,0,1,3,3.14c.15.39,15.25,39.74,29.16,79.18,8.18,23.21,14.36,41.94,18.37,55.66,2.42,8.27,4.08,14.85,4.93,19.55,1,5.72,1.69,11.53-2.75,14.19C1076.94,1001.9,1072.59,1002.89,1067.28,1002.89ZM876.09,774.25c-.89,14.59-.06,49.81,22.48,87.65,23.77,39.92,54.19,71.13,95.74,98.22,42,27.42,63.77,31.52,73,31.52a20.4,20.4,0,0,0,5.13-.56c-.47-5.28-4.25-23-25.18-81.91C1035.8,877,1024,846,1020.83,837.6Z" transform="translate(-522.19 -42.89)"/><path class="cls-4" d="M1069.7,827.24a9.61,9.61,0,1,1-11.52-7.2A9.6,9.6,0,0,1,1069.7,827.24Z" transform="translate(-522.19 -42.89)"/><path class="cls-4" d="M1117.69,757a9.61,9.61,0,1,1-11.52-7.2A9.6,9.6,0,0,1,1117.69,757Z" transform="translate(-522.19 -42.89)"/><path class="cls-4" d="M1157.61,668.87a9.61,9.61,0,1,1-11.52-7.2A9.6,9.6,0,0,1,1157.61,668.87Z" transform="translate(-522.19 -42.89)"/><path class="cls-4" d="M1174.36,601.88a9.61,9.61,0,1,1-11.53-7.2A9.61,9.61,0,0,1,1174.36,601.88Z" transform="translate(-522.19 -42.89)"/><path class="cls-5" d="M1048.22,465.61s-22.75,30-45.14,43.67c-20.19,12.37-37.52,16.73-51,13.4-23.12-5.68-39-49.52,2.59-63.57,39.67-13.41,53.29-37.48,53.29-37.48" transform="translate(-522.19 -42.89)"/><path class="cls-6" d="M954.63,459.11C913.07,473.16,928.92,517,952,522.68c10,2.47,22.12.71,35.92-5.38a83,83,0,0,0-5-34.91,83.86,83.86,0,0,0-16.64-27.85C962.72,456.16,958.82,457.7,954.63,459.11Z" transform="translate(-522.19 -42.89)"/><path class="cls-4" d="M1048.22,465.61s-.56.9-1.65,2.55-2.75,4.06-4.94,7a203.38,203.38,0,0,1-20,23.48,114.92,114.92,0,0,1-16.06,13.51c-.77.52-1.53,1-2.31,1.57s-1.61,1.06-2.41,1.56q-2.43,1.54-5,3A104.9,104.9,0,0,1,985,523.74a76.42,76.42,0,0,1-12.2,4,53,53,0,0,1-13.51,1.43,43.92,43.92,0,0,1-7.08-.77l-.89-.19-.44-.09-.11,0-.24-.06-.19,0-.76-.2-1-.31-.51-.17-.45-.17-.91-.34c-.59-.26-1.19-.5-1.76-.79a36.2,36.2,0,0,1-11.65-9.17,42.15,42.15,0,0,1-7.34-12.45,40.45,40.45,0,0,1-2.67-14.22,37.09,37.09,0,0,1,.77-7.27,34.7,34.7,0,0,1,2.27-6.93,33.8,33.8,0,0,1,3.63-6.2,36.78,36.78,0,0,1,4.69-5.17,45.33,45.33,0,0,1,10.93-7.25,58.69,58.69,0,0,1,5.72-2.33l1.42-.47,1.28-.41,2.61-.82c3.23-1.09,6.47-2.2,9.52-3.45s6-2.51,8.71-3.87a121.78,121.78,0,0,0,14.56-8.3,106,106,0,0,0,10.39-7.89c1.38-1.19,2.58-2.3,3.6-3.29s1.88-1.85,2.55-2.58,1.17-1.3,1.51-1.69l.49-.6s-.1.25-.31.72-.55,1.16-1,2a57,57,0,0,1-4.77,7.3,80.11,80.11,0,0,1-9.15,10.1c-1.93,1.81-4.08,3.63-6.41,5.48s-4.91,3.62-7.65,5.41-5.7,3.47-8.83,5.11-6.42,3.16-10,4.61l-5.06,2a49.71,49.71,0,0,0-4.64,2.12,34.3,34.3,0,0,0-8.22,5.81,24.84,24.84,0,0,0-5.61,8,23.81,23.81,0,0,0-1.88,9.77,31.3,31.3,0,0,0,7.43,19.44,25.16,25.16,0,0,0,8,6.41c.36.19.74.33,1.11.5l.56.22.28.11.23.08.49.17.76.21.19.06h0l.08,0,.32.07.65.16a33,33,0,0,0,5.29.72c7.23.44,14.77-1.18,21.83-3.56a110.19,110.19,0,0,0,10.34-4.12c1.66-.77,3.32-1.54,4.93-2.35.81-.4,1.59-.81,2.38-1.22l1.21-.65.6-.32c.16-.07.37-.2.55-.3a96.9,96.9,0,0,0,8.55-5.5c2.71-1.91,5.27-3.88,7.69-5.84,4.83-3.91,9.11-7.75,12.85-11.23s6.91-6.63,9.51-9.24,4.62-4.69,6-6.13Z" transform="translate(-522.19 -42.89)"/><path class="cls-5" d="M1121.18,439.76c-22.92,7.95-38.73,11.18-49.25,21.56-53.23,52.52,30.47,133,30.47,133l45.9-32.92C1185.47,534.79,1169.12,423.12,1121.18,439.76Z" transform="translate(-522.19 -42.89)"/><path class="cls-4" d="M1061.94,475s-.13.54-.39,1.55l-.51,1.86c-.17.73-.37,1.56-.6,2.48-.45,1.85-.94,4.11-1.41,6.68s-.91,5.47-1.15,8.62a86.52,86.52,0,0,0-.28,10.07,84.91,84.91,0,0,0,1.08,11c.14.94.35,1.89.53,2.85s.4,1.91.61,2.87c.45,1.92,1,3.85,1.55,5.78a107.65,107.65,0,0,0,4.23,11.5c1.62,3.8,3.5,7.5,5.46,11.12.51.89,1,1.79,1.52,2.67s1,1.77,1.53,2.64c1,1.74,2.12,3.42,3.17,5.1,2.16,3.32,4.33,6.5,6.48,9.47s4.25,5.76,6.24,8.3c4,5.11,7.47,9.3,10,12.24l4,4.63a51.45,51.45,0,0,1-5.41-2.9c-1.68-1-3.68-2.28-5.91-3.84s-4.68-3.43-7.26-5.58-5.28-4.62-8-7.36a115.25,115.25,0,0,1-8.12-9.12c-1.34-1.65-2.63-3.39-3.89-5.19s-2.5-3.65-3.68-5.57a99,99,0,0,1-6.34-12.14,87,87,0,0,1-4.43-13.1c-.28-1.11-.53-2.22-.77-3.33s-.41-2.23-.58-3.34a65.88,65.88,0,0,1-.71-6.62,67.44,67.44,0,0,1,.38-12.56,66.09,66.09,0,0,1,2.34-10.92,64.25,64.25,0,0,1,3.4-8.68,65.14,65.14,0,0,1,3.46-6.23c.54-.83,1-1.56,1.45-2.19s.83-1.12,1.14-1.54Z" transform="translate(-522.19 -42.89)"/><path class="cls-5" d="M1071,615.48c29,1.7,51,9.83,68.37,4.41,22.82-7.13,33.87-45.87,6.69-58.74-33.67-15.94-70.33-6.14-85.49,5.48-4.36,3.34-15.27,12.8-12.56,29.79C1049.7,607.2,1063.82,615.06,1071,615.48Z" transform="translate(-522.19 -42.89)"/><path class="cls-11" d="M1133.74,580.79c-57.61-16.34-83.52,14.76-82.55,20.67,1.78,10.77,12.85,13.09,20,13.51,20.12,1.19,36.9,5.47,51.09,6.16-.14.26-.27.53-.41.8a49.43,49.43,0,0,0,17.44-1.83C1162.16,612.82,1166.76,592.05,1133.74,580.79Z" transform="translate(-522.19 -42.89)"/><path class="cls-12" d="M1097.88,553.38l-2.89.68c-1.86.48-4.57,1.19-8,2.3a95,95,0,0,0-11.79,4.74,57.53,57.53,0,0,0-13.37,8.64,28.69,28.69,0,0,0-9.12,14.61,25.6,25.6,0,0,0-.43,9.15c.05.39.09.79.17,1.19l.11.59.05.3v.07c0,.05,0-.14,0,0l0,.17.14.69c.05.21.1.32.14.49s.21.68.31,1a17.12,17.12,0,0,0,1.94,3.93,17.31,17.31,0,0,0,6.72,5.79,21.15,21.15,0,0,0,4.47,1.59,25.92,25.92,0,0,0,4.93.71c8.18.38,16.53,1.34,24.68,2.43l12.11,1.68c4,.53,7.93,1.06,11.78,1.38a88.61,88.61,0,0,0,11.21.31,47.42,47.42,0,0,0,5.28-.54c.43,0,.85-.15,1.28-.22l.54-.09.71-.16a19.91,19.91,0,0,0,2.07-.64,22.91,22.91,0,0,0,7.73-5.08,32.58,32.58,0,0,0,5.69-7.58,35.78,35.78,0,0,0,4.51-17.13,24.71,24.71,0,0,0-1.21-7.74,20.74,20.74,0,0,0-1.43-3.33l-.44-.76-.44-.69-.55-.78-.5-.67a28.58,28.58,0,0,0-2.23-2.53c-.78-.78-1.57-1.5-2.36-2.18a48.9,48.9,0,0,0-4.63-3.45,65.87,65.87,0,0,0-7.16-4.11c-1.72-.84-2.67-1.24-2.67-1.24s1,.15,2.9.63a55.57,55.57,0,0,1,8,2.71,45.64,45.64,0,0,1,5.47,2.78,34,34,0,0,1,5.92,4.45l.75.75.66.69.73.87c.22.28.45.57.67.87a25.7,25.7,0,0,1,2.34,3.92,29.9,29.9,0,0,1,2.65,9.37,41.11,41.11,0,0,1-3.46,21.27,39.72,39.72,0,0,1-6.53,10.2,31.27,31.27,0,0,1-10.61,7.88,29.5,29.5,0,0,1-3.38,1.24l-.7.2-.09,0-.2,0-.19.05-.4.1c-.52.12-1,.26-1.58.36a55.9,55.9,0,0,1-6.39.93,84.64,84.64,0,0,1-12.73.12c-8.39-.49-16.55-1.73-24.62-2.77s-16-2.05-23.92-2.67a37.46,37.46,0,0,1-6.94-1.18,31.69,31.69,0,0,1-6.63-2.69,26.23,26.23,0,0,1-13-16.28c-.14-.57-.29-1.08-.41-1.7,0-.29-.13-.63-.17-.88l-.1-.7,0-.17,0-.19V597l0-.4-.08-.78c-.07-.52-.08-1.05-.12-1.58a33.83,33.83,0,0,1,1.55-12.28,32.56,32.56,0,0,1,5.55-10.2,38.79,38.79,0,0,1,7.67-7.19,57.26,57.26,0,0,1,15.84-7.57,78.88,78.88,0,0,1,12.88-2.89c3.6-.53,6.46-.62,8.39-.73Z" transform="translate(-522.19 -42.89)"/><path class="cls-7" d="M1186.2,47.11c-76.65,0-120.28,65-120.28,129.54,0,33.52,8.94,57.57,31,75.62-4.64,21.23-35.38,40-35.38,40,30.74,5.86,52.7-5.12,69.79-19.81,19.5,9.56,35.34,12.46,56.09,14C1268.63,292.28,1325,239.54,1325,175S1262.85,47.11,1186.2,47.11Z" transform="translate(-522.19 -42.89)"/><path class="cls-4" d="M1077.92,298.11a92.63,92.63,0,0,1-17.19-1.68,4.22,4.22,0,0,1-1.41-7.75c.28-.17,26.89-16.64,32.8-34.91-21-18.21-30.43-42.13-30.43-77.12,0-33.85,11.81-67.28,32.4-91.7,16.16-19.19,45.27-42.06,92.11-42.06,37.45,0,73.34,14.52,101,40.88,26.66,25.37,42,58.61,42,91.2a110.53,110.53,0,0,1-36.06,82c-23.82,22-57,34.09-93.51,34.09h0c-4.12,0-8.34-.15-12.53-.45-19.67-1.42-35.92-4.17-55.16-13.19C1115,291.35,1097.32,298.11,1077.92,298.11Zm-5-8.61c1.7.11,3.39.16,5,.16,18.36,0,34.45-6.48,50.64-20.39a4.21,4.21,0,0,1,4.61-.59c19.2,9.42,34.53,12.09,54.53,13.54,4,.28,8,.43,11.93.43h0c34.35,0,65.53-11.31,87.78-31.85A102.16,102.16,0,0,0,1320.76,175c0-65.86-62.88-123.63-134.56-123.63-75.39,0-116.06,64.56-116.06,125.31,0,33.37,9.07,55.68,29.43,72.36a4.2,4.2,0,0,1,1.45,4.16C1097.71,268.32,1082.83,281.89,1072.88,289.5Z" transform="translate(-522.19 -42.89)"/><text class="cls-13" transform="translate(561.64 133.51)">GET MON<tspan class="cls-14" x="177.21" y="0">E</tspan><tspan x="201.12" y="0">Y</tspan></text><circle class="cls-15" cx="354.45" cy="577.6" r="98.2"/><circle class="cls-16" cx="352.54" cy="576.57" r="75.39"/><path class="cls-17" d="M902.05,525.13A98.22,98.22,0,0,0,811,694.2c-.54-29.69,7.62-63.36,25-95.6S877,541,902.05,525.13Z" transform="translate(-522.19 -42.89)"/><path class="cls-5" d="M931.18,627.7s-3.84,4.94-3.23,9.42l.82.43a.93.93,0,0,0,.8,0,6.71,6.71,0,0,0,2.64-2.81c.27-.43.5-.84.69-1.21A20.41,20.41,0,0,0,931.18,627.7Z" transform="translate(-522.19 -42.89)"/><path class="cls-18" d="M931.09,627.47l.09.23A1.78,1.78,0,0,0,931.09,627.47Z" transform="translate(-522.19 -42.89)"/><path class="cls-5" d="M931.18,627.7a20.41,20.41,0,0,1,1.72,5.84c.36-.7.57-1.2.58-1.21a.3.3,0,0,1,0-.08,6.76,6.76,0,0,0,.16-4.86,1.17,1.17,0,0,1-.21-.72q-.12-.37-.27-.75A8.68,8.68,0,0,0,931.18,627.7Z" transform="translate(-522.19 -42.89)"/><path class="cls-5" d="M931.18,627.7l-.09-.23A73.41,73.41,0,0,0,919,611.69a23.75,23.75,0,0,0-12.55-6.26c0,.65,0,1.39-.1,2.2a14.52,14.52,0,0,1,6.51,7c2.39,5,3.94,13.47,5.68,17.44l9.42,5.08C927.34,632.64,931.18,627.7,931.18,627.7Z" transform="translate(-522.19 -42.89)"/><path class="cls-5" d="M906.37,602.86c0,.58.08,1.46.07,2.57A23.75,23.75,0,0,1,919,611.69a73.41,73.41,0,0,1,12.1,15.78,1.78,1.78,0,0,1,.09.23,8.68,8.68,0,0,1,2-1.78c-.05-.15-.11-.29-.17-.44a38.93,38.93,0,0,0-5.11-8.48A93,93,0,0,0,919,607h0c-4.61-3.5-8-4.36-10-4.47A6.84,6.84,0,0,0,906.37,602.86Z" transform="translate(-522.19 -42.89)"/><path class="cls-18" d="M914.11,657.54l.25,0Z" transform="translate(-522.19 -42.89)"/><path class="cls-5" d="M914.36,657.5s4.43-.61,6.92-2.47a6.62,6.62,0,0,0,.78-3.53,1,1,0,0,0-.45-.66l-1.72-.92C916.19,652.11,914.36,657.5,914.36,657.5Z" transform="translate(-522.19 -42.89)"/><path class="cls-5" d="M914.36,657.5a7.63,7.63,0,0,0-.27,3.49c2.91-.6,4.83-1.7,5.71-3.26a.41.41,0,0,1,.05-.09,18.11,18.11,0,0,0,1.43-2.61C918.79,656.89,914.36,657.5,914.36,657.5Z" transform="translate(-522.19 -42.89)"/><path class="cls-5" d="M893.58,650a14.62,14.62,0,0,1-9.31-1.53c-.57.43-1.09.81-1.57,1.14a23.15,23.15,0,0,0,11.58,6.49c7.93,1.78,17.55,1.77,19.83,1.41l.25,0s1.83-5.39,5.53-7.58l-8.75-4.72C906.84,646,899,649.28,893.58,650Z" transform="translate(-522.19 -42.89)"/><path class="cls-5" d="M914.36,657.5l-.25,0c-2.28.36-11.9.37-19.83-1.41a23.15,23.15,0,0,1-11.58-6.49,24.64,24.64,0,0,1-2.28,1.42,6.71,6.71,0,0,0,1.18,2.39,15.65,15.65,0,0,0,6,4.57l3.34,1.35a91,91,0,0,0,13.11,2,38.14,38.14,0,0,0,9.81-.35l.18,0A7.63,7.63,0,0,1,914.36,657.5Z" transform="translate(-522.19 -42.89)"/><path class="cls-5" d="M916.48,645.41l5.24,2.82,4.93-9.15-5.31-2.86a9.77,9.77,0,0,1-4.86,9.19Z" transform="translate(-522.19 -42.89)"/><path class="cls-6" d="M885.69,647.34c-.5.42-1,.81-1.42,1.16a14.62,14.62,0,0,0,9.31,1.53c5.44-.75,13.26-4,17.56-4.83l-3.45-1.86a1.18,1.18,0,0,1-.6-1.25c-6.24-1.55-14.74,0-16.44.3A44.56,44.56,0,0,1,885.69,647.34Z" transform="translate(-522.19 -42.89)"/><path class="cls-6" d="M912.85,614.6a14.52,14.52,0,0,0-6.51-7c-.05.68-.11,1.41-.21,2.19a44.69,44.69,0,0,1-1.41,6.9c.86,2,4.16,9.45,8.67,13.61a1.17,1.17,0,0,1,1.45-.27l3.69,2C916.79,628.07,915.24,619.61,912.85,614.6Z" transform="translate(-522.19 -42.89)"/><path class="cls-6" d="M904.37,617.88a44.86,44.86,0,0,1-3,7.1,6.84,6.84,0,0,1,4.12.78A7,7,0,1,1,896,634.9a51.56,51.56,0,0,1-4.64,6.66c-.23.28-.46.56-.7.83,1.7-.33,10.2-1.85,16.44-.3a1.06,1.06,0,0,1,.12-.34,1.18,1.18,0,0,1,1.59-.48l7.68,4.14a9.77,9.77,0,0,0,4.86-9.19l-7.61-4.1a1.18,1.18,0,0,1-.48-1.59,1.43,1.43,0,0,1,.14-.2c-4.51-4.16-7.81-11.56-8.67-13.61C904.61,617.11,904.49,617.49,904.37,617.88Z" transform="translate(-522.19 -42.89)"/><path class="cls-6" d="M855.94,652.14a33,33,0,0,0,9.9-3.31c13.23-6.78,22-21,26.95-34.66a56.39,56.39,0,0,0,3.52-17,37.48,37.48,0,0,0-.81-9.57,31.64,31.64,0,0,0-1.46-4.74c-.2-.5-.46-1.32-.79-2.13a24.52,24.52,0,0,0-2.89-2.3c1.25,2.19,1.88,5.57-1,10.07-5.5,8.52-25.88,7.8-32.28,18.89-5.73,11.44,6.09,28.06,2,37.34-2.16,4.9-5.33,6.23-7.85,6.39a22.44,22.44,0,0,0,3.73,1.2Zm5.64-28.41a1.18,1.18,0,0,1,1.35-1c.09,0,4.9.73,6.15-2.08a5.48,5.48,0,0,0,.39-3.11c-2,2.11-4.58,3-6.46,2a3.71,3.71,0,0,1-1.34-1.27,3.39,3.39,0,0,1-1.75-.85,2.91,2.91,0,0,1-.57-.77c-.81-1.52-.45-3.48,0-5.08a12.77,12.77,0,0,1,2.84-5c1.2-1.32,2.94-2.73,4.8-2.32a3.41,3.41,0,0,1,1.83,1.16,3.62,3.62,0,0,1,1.54.42c1.89,1,2.57,3.64,1.91,6.49a5.52,5.52,0,0,0,2.38-2c1.67-2.6-1.61-6.25-1.65-6.28a1.18,1.18,0,0,1,.08-1.66,1.16,1.16,0,0,1,1.65.07,12.39,12.39,0,0,1,1.9,2.87,7.22,7.22,0,0,1,.77,4.25,18.14,18.14,0,0,1,3.25,2.93,9.59,9.59,0,0,1,2.08,3.8,6.35,6.35,0,0,1-.59,4.69l0,0,0,.06a6.33,6.33,0,0,1-3.58,3.07,9.63,9.63,0,0,1-4.33.35,17.69,17.69,0,0,1-4.23-1.1,7.15,7.15,0,0,1-4,1.71,12.72,12.72,0,0,1-3.43,0A1.18,1.18,0,0,1,861.58,623.73Z" transform="translate(-522.19 -42.89)"/><path class="cls-5" d="M859.06,644.73c4.09-9.28-7.73-25.9-2-37.34,6.4-11.09,26.78-10.37,32.28-18.89,2.9-4.5,2.27-7.88,1-10.07-4-2.74-9.27-4.68-15.69-5.81a1,1,0,0,1-.24,0,41.48,41.48,0,0,0-10-.39,46.51,46.51,0,0,0-8.18,1.4,39.83,39.83,0,0,0-7.56,2.78,1.17,1.17,0,0,1-1.52-.38c-2-2.9-3.11-7.71-3.74-11.58-.51,5.91,1.83,16.21,1.83,16.21A40.13,40.13,0,0,0,833,594.42a47.69,47.69,0,0,0-5.19,18.68,61,61,0,0,0-12.92,6.2c3.4-1.45,7.48-2.82,10.64-2.78a1.19,1.19,0,0,1,1.16,1.06,38.55,38.55,0,0,0,1.84,7.84,45.89,45.89,0,0,0,3.33,7.61,41.55,41.55,0,0,0,5.82,8.12c4.49,4.78,9,8.11,13.55,10C853.73,651,856.9,649.63,859.06,644.73Zm6.27-60.06a5.71,5.71,0,0,1,6.62-.77c4.44,2.57,1.89,6.32,1.16,7.69s-4,5.52-7.37,3.15a6.23,6.23,0,0,1-1.66-8.73A6.57,6.57,0,0,1,865.33,584.67ZM851.42,588c.07-1.89,1.7-3.36,3.27-4.17s3.64-1,4.47,1a6.24,6.24,0,0,1-.39,5c-.82,1.58-2.71,2.92-4.54,2.33A4.43,4.43,0,0,1,851.42,588ZM836,618.51c-.18-1.76.15-3.93,1.69-5a4.42,4.42,0,0,1,5,.09c1.5,1.2,1.42,3.51.56,5.06a6.24,6.24,0,0,1-3.92,3.06C837.19,622.08,836.2,620.43,836,618.51Zm6.59,8.4a7.21,7.21,0,0,1,.43-1.79,6.25,6.25,0,0,1,8.21-3.42c3.81,1.48,2.16,6.53,1.42,7.89s-2.46,5.56-7,3.26A5.69,5.69,0,0,1,842.58,626.91Z" transform="translate(-522.19 -42.89)"/><path class="cls-11" d="M895.5,587.6a37.48,37.48,0,0,1,.81,9.57,56.39,56.39,0,0,1-3.52,17c-4.91,13.62-13.72,27.88-26.95,34.66a33,33,0,0,1-9.9,3.31l-1,.18a17.17,17.17,0,0,0,2,.36c5.91.8,11.85-1,17.64-5.32h0a42.52,42.52,0,0,0,3.5-3,70.12,70.12,0,0,0,7.94-9A72.4,72.4,0,0,0,900.07,600c.42-7.2-1.35-13.13-5.27-17.63a21.19,21.19,0,0,0-1.55-1.6c.33.81.59,1.63.79,2.13A31.64,31.64,0,0,1,895.5,587.6Z" transform="translate(-522.19 -42.89)"/><path class="cls-5" d="M868.94,615.74c-1.78,1.69-5,3-7.27,2.54a3.71,3.71,0,0,0,1.34,1.27c1.88,1,4.44.13,6.46-2a8.88,8.88,0,0,0-.21-1A8.29,8.29,0,0,0,868.94,615.74Z" transform="translate(-522.19 -42.89)"/><path class="cls-5" d="M870.54,612.87a7.62,7.62,0,0,0,.83-.2,7.81,7.81,0,0,0,.93-.35c.66-2.85,0-5.47-1.91-6.49a3.62,3.62,0,0,0-1.54-.42A9.66,9.66,0,0,1,870.54,612.87Z" transform="translate(-522.19 -42.89)"/><path class="cls-5" d="M833,594.42a40.13,40.13,0,0,1,12.29-13.77s-2.34-10.3-1.83-16.21c-.21-1.3-.36-2.5-.47-3.49a8,8,0,0,0-.58,2.46,56.84,56.84,0,0,0,1.38,15,1.15,1.15,0,0,1-.43,1.24,46.32,46.32,0,0,0-9.21,9.19,36.21,36.21,0,0,0-3,4.6l0,0a35.18,35.18,0,0,0-2.18,5,46.16,46.16,0,0,0-2.61,12.75,1.16,1.16,0,0,1-.8,1,57.11,57.11,0,0,0-13.25,7.08,7.69,7.69,0,0,0-1.88,2.07c1.17-.6,2.74-1.36,4.48-2.11a61,61,0,0,1,12.92-6.2A47.69,47.69,0,0,1,833,594.42Z" transform="translate(-522.19 -42.89)"/><path class="cls-5" d="M865,569.82a45.63,45.63,0,0,1,6.08,0A65.14,65.14,0,0,0,860.7,563a31.94,31.94,0,0,0-11.16-3.85,14.37,14.37,0,0,0-4.39,0c.06.66.15,1.62.3,2.75C848.69,562.37,857.82,564.2,865,569.82Z" transform="translate(-522.19 -42.89)"/><path class="cls-6" d="M845.45,561.88c.45,3.52,1.38,8.73,3.15,12a44.68,44.68,0,0,1,7-2.46,48.65,48.65,0,0,1,8.62-1.5l.83-.06C857.82,564.2,848.69,562.37,845.45,561.88Z" transform="translate(-522.19 -42.89)"/><path class="cls-5" d="M822,634.85a65.71,65.71,0,0,0,11.44,4.93,46.28,46.28,0,0,1-3.27-4.93c-8.67-2.94-15.22-9.56-17.42-12-1,.51-1.9,1-2.49,1.27a15.47,15.47,0,0,0,2.38,3.52A32.09,32.09,0,0,0,822,634.85Z" transform="translate(-522.19 -42.89)"/><path class="cls-6" d="M830.17,634.85l-.41-.73a48.66,48.66,0,0,1-3.5-8,46,46,0,0,1-1.79-7.2c-3.67.31-8.53,2.4-11.72,4C815,625.29,821.5,631.91,830.17,634.85Z" transform="translate(-522.19 -42.89)"/><path class="cls-5" d="M921.64,606.29a91.59,91.59,0,0,1,8.13,9.27,43.43,43.43,0,0,1,5.1,8.23c.28-.52.56-1,.84-1.52,1.39-2.48,2.48-4.43,2.38-6.44-.14-2.86-2.94-5.51-5-7.25-3-2.52-5.82-3.68-8.33-3.45A6.17,6.17,0,0,0,921.64,606.29Z" transform="translate(-522.19 -42.89)"/><path class="cls-5" d="M893.68,669.88a10.82,10.82,0,0,1-3-3.13c-7.33,4.53-15.18,1.51-18.2,0a16.6,16.6,0,0,0,8.32,5C886.11,673,891.14,671.1,893.68,669.88Z" transform="translate(-522.19 -42.89)"/><path class="cls-5" d="M913,664.36l.46-.88a42.73,42.73,0,0,1-9.6.23,92.88,92.88,0,0,1-12.19-1.77c0,1.62.53,4.7,4.87,6.94l.06,0a19.54,19.54,0,0,0,3.24,1.27c4.12,1.25,7,1.25,8.92,0C910.6,669.07,911.73,666.89,913,664.36Z" transform="translate(-522.19 -42.89)"/><path class="cls-5" d="M890.65,666.75a6.48,6.48,0,0,1-.33-.57,8.42,8.42,0,0,1-.93-4.88c-.71-.27-1.38-.54-2-.83A17.87,17.87,0,0,1,881,664.1a19.79,19.79,0,0,1-6.62.89,22.44,22.44,0,0,1-3.75-.43,22.75,22.75,0,0,0,1.85,2.21C875.47,668.26,883.32,671.28,890.65,666.75Z" transform="translate(-522.19 -42.89)"/><path class="cls-19" d="M894.62,632.58l-1.3-.7c-5.92,10.39-13.2,15.49-15.09,16.69l.94.5a30.37,30.37,0,0,0,5.08-3.58A47.19,47.19,0,0,0,894.62,632.58Z" transform="translate(-522.19 -42.89)"/><path class="cls-20" d="M893.32,631.88l-1.54-.83c-1.22,2-2.54,3.93-3.94,5.81a69,69,0,0,1-10.46,11.25l.85.46C880.12,647.37,887.4,642.27,893.32,631.88Z" transform="translate(-522.19 -42.89)"/><path class="cls-19" d="M902.12,617.22a42.39,42.39,0,0,0,1.67-7.61,35,35,0,0,0,.23-6.71l-.78-.43c0,2.17-.18,11.22-5.75,22.06l1.17.63A43,43,0,0,0,902.12,617.22Z" transform="translate(-522.19 -42.89)"/><path class="cls-20" d="M903.24,602.47l-1-.56a74.57,74.57,0,0,1-5.45,19.62c-.31.7-.62,1.4-.94,2.09l1.69.91C903.06,613.69,903.28,604.64,903.24,602.47Z" transform="translate(-522.19 -42.89)"/><path class="cls-18" d="M894.45,629.82l1,.55a7.2,7.2,0,0,1,.67-1.79,6.83,6.83,0,0,1,1.11-1.52l-1-.54Z" transform="translate(-522.19 -42.89)"/><path class="cls-21" d="M894.76,625.73c-.27.53-.54,1.06-.82,1.58s-.63,1.15-1,1.72l1.47.79,1.78-3.3Z" transform="translate(-522.19 -42.89)"/><path class="cls-7" d="M904.43,627.82a4.61,4.61,0,0,0-5.47.84,4.54,4.54,0,0,1,5.29,1.32,4.45,4.45,0,0,1-.06,6.07,4.61,4.61,0,0,0,.24-8.23Z" transform="translate(-522.19 -42.89)"/><path class="cls-22" d="M904.25,630a4.54,4.54,0,0,0-5.29-1.32,4.9,4.9,0,0,0-.76,1,4.6,4.6,0,0,0,6,6.36A4.45,4.45,0,0,0,904.25,630Z" transform="translate(-522.19 -42.89)"/><path class="cls-23" d="M896.57,580.79c-4.55-5.21-11.7-8.73-21.26-10.44a66.51,66.51,0,0,0-13.52-9.43,34.11,34.11,0,0,0-12-4.1,14.31,14.31,0,0,0-6,.23h0a1.22,1.22,0,0,0-.73.32,5.24,5.24,0,0,0-2.2,2.48,10,10,0,0,0-.84,3.36,59.42,59.42,0,0,0,1.26,15,48.72,48.72,0,0,0-9.09,9.24,35.48,35.48,0,0,0-5.48,10.18A48.58,48.58,0,0,0,824,610.3a59.45,59.45,0,0,0-13.21,7.2,10,10,0,0,0-2.35,2.55,5,5,0,0,0-.77,3.76v0h0a13.76,13.76,0,0,0,3.15,5.33,34.18,34.18,0,0,0,10,7.74A66.44,66.44,0,0,0,836.18,643c6.7,7,13.56,11.09,20.42,12,6.34.85,12.65-.94,18.76-5.32l2.68,1.44a8.66,8.66,0,0,0,1.5,3.48,16.23,16.23,0,0,0,5.52,4.72,15.57,15.57,0,0,1-4.76,2.52,17.51,17.51,0,0,1-5.8.8,20,20,0,0,1-6.17-1.14,1.18,1.18,0,0,0-1.33.32,1.16,1.16,0,0,0-.12,1.36c3.51,5.94,8,9.58,13.36,10.82a21,21,0,0,0,11.47-.8,25.56,25.56,0,0,0,4.38-2,23.45,23.45,0,0,0,3.11,1.17c4.82,1.45,8.27,1.38,10.84-.24,2.35-1.47,3.68-4,5.09-6.75.42-.82.85-1.66,1.33-2.5l0,0,.06-.14a8.92,8.92,0,0,0,5.28-3.86c.14-.2.51-.78.94-1.57.91-1.69,2-4.33,1.59-6.35a3.34,3.34,0,0,0-.68-1.43l5.16-9.59a3.29,3.29,0,0,0,1.57-.21c1.93-.73,3.51-3.14,4.42-4.82.43-.79.7-1.43.8-1.66a8.9,8.9,0,0,0,.32-6.51l.46-.85v0c.45-.86.9-1.68,1.35-2.47.28-.5.55-1,.8-1.46a11.94,11.94,0,0,0,1.88-6.24,8.75,8.75,0,0,0-1.5-4.3,21.86,21.86,0,0,0-4.38-4.65c-3.54-2.95-6.95-4.29-10.11-4a8.53,8.53,0,0,0-4.59,1.9c-4-2.92-7.69-4.45-11-4.53a8.49,8.49,0,0,0-3.73.66l-2.68-1.45C902.75,591.87,900.77,585.62,896.57,580.79Zm36.49,27.79c2.09,1.74,4.89,4.39,5,7.25.1,2-1,4-2.38,6.44-.28.49-.56,1-.84,1.52a43.43,43.43,0,0,0-5.1-8.23,91.59,91.59,0,0,0-8.13-9.27,6.17,6.17,0,0,1,3.09-1.16C927.24,604.9,930,606.06,933.06,608.58ZM919,607h0a93,93,0,0,1,8.92,10,38.93,38.93,0,0,1,5.11,8.48c.06.15.12.29.17.44s.19.5.27.75a1.17,1.17,0,0,0,.21.72,6.76,6.76,0,0,1-.16,4.86.3.3,0,0,0,0,.08s-.22.51-.58,1.21c-.19.37-.42.78-.69,1.21a6.71,6.71,0,0,1-2.64,2.81.93.93,0,0,1-.8,0l-.82-.43L918.53,632l-3.69-2a1.17,1.17,0,0,0-1.45.27,1.43,1.43,0,0,0-.14.2,1.18,1.18,0,0,0,.48,1.59l7.61,4.1,5.31,2.86-4.93,9.15-5.24-2.82-7.68-4.14a1.18,1.18,0,0,0-1.59.48,1.06,1.06,0,0,0-.12.34,1.18,1.18,0,0,0,.6,1.25l3.45,1.86,8.75,4.72,1.72.92a1,1,0,0,1,.45.66,6.62,6.62,0,0,1-.78,3.53,18.11,18.11,0,0,1-1.43,2.61.41.41,0,0,0-.05.09c-.88,1.56-2.8,2.66-5.71,3.26l-.18,0a38.14,38.14,0,0,1-9.81.35,91,91,0,0,1-13.11-2L887.65,658a15.65,15.65,0,0,1-6-4.57,6.71,6.71,0,0,1-1.18-2.39,24.64,24.64,0,0,0,2.28-1.42c.48-.33,1-.71,1.57-1.14s.92-.74,1.42-1.16a44.56,44.56,0,0,0,5-5c.24-.27.47-.55.7-.83A51.56,51.56,0,0,0,896,634.9a6.95,6.95,0,1,0,9.55-9.14,6.84,6.84,0,0,0-4.12-.78,44.86,44.86,0,0,0,3-7.1c.12-.39.24-.77.35-1.16a44.69,44.69,0,0,0,1.41-6.9c.1-.78.16-1.51.21-2.19s.09-1.55.1-2.2c0-1.11,0-2-.07-2.57a6.84,6.84,0,0,1,2.66-.34C911,602.63,914.39,603.49,919,607Zm-19.12,63.19a19.54,19.54,0,0,1-3.24-1.27l-.06,0c-4.34-2.24-4.91-5.32-4.87-6.94a92.88,92.88,0,0,0,12.19,1.77,42.73,42.73,0,0,0,9.6-.23l-.46.88c-1.31,2.53-2.44,4.71-4.24,5.84C906.84,671.43,904,671.43,899.88,670.18Zm-27.43-3.41a22.75,22.75,0,0,1-1.85-2.21,22.44,22.44,0,0,0,3.75.43,19.79,19.79,0,0,0,6.62-.89,17.87,17.87,0,0,0,6.39-3.63c.65.29,1.32.56,2,.83a8.42,8.42,0,0,0,.93,4.88,6.48,6.48,0,0,0,.33.57,10.82,10.82,0,0,0,3,3.13c-2.54,1.22-7.57,3.08-12.91,1.84A16.6,16.6,0,0,1,872.45,666.77Zm27.62-30.84a4.6,4.6,0,0,1-1.87-6.24,4.9,4.9,0,0,1,.76-1,4.6,4.6,0,1,1,1.11,7.27Zm-3.94-7.35a7.2,7.2,0,0,0-.67,1.79l-1-.55L893,629c.33-.57.64-1.14,1-1.72s.55-1,.82-1.58l1.47.79,1,.54A6.83,6.83,0,0,0,896.13,628.58Zm-17,20.49-.94-.5-.85-.46a69,69,0,0,0,10.46-11.25c1.4-1.88,2.72-3.82,3.94-5.81l1.54.83,1.3.7a47.19,47.19,0,0,1-10.37,12.91A30.37,30.37,0,0,1,879.17,649.07Zm18.32-24.54-1.69-.91c.32-.69.63-1.39.94-2.09a74.57,74.57,0,0,0,5.45-19.62l1,.56.78.43a35,35,0,0,1-.23,6.71,42.39,42.39,0,0,1-1.67,7.61,43,43,0,0,1-3.46,7.94Zm-48-65.38A31.94,31.94,0,0,1,860.7,563a65.14,65.14,0,0,1,10.42,6.86,45.63,45.63,0,0,0-6.08,0l-.83.06a48.65,48.65,0,0,0-8.62,1.5,44.68,44.68,0,0,0-7,2.46c-1.77-3.23-2.7-8.44-3.15-12-.15-1.13-.24-2.09-.3-2.75A14.37,14.37,0,0,1,849.54,559.15Zm-39.28,65c.59-.31,1.45-.76,2.49-1.27,3.19-1.56,8-3.65,11.72-4a46,46,0,0,0,1.79,7.2,48.66,48.66,0,0,0,3.5,8l.41.73a46.28,46.28,0,0,0,3.27,4.93A65.71,65.71,0,0,1,822,634.85a32.09,32.09,0,0,1-9.36-7.2A15.47,15.47,0,0,1,810.26,624.13Zm27.4,17a41.55,41.55,0,0,1-5.82-8.12,45.89,45.89,0,0,1-3.33-7.61,38.55,38.55,0,0,1-1.84-7.84,1.19,1.19,0,0,0-1.16-1.06c-3.16,0-7.24,1.33-10.64,2.78-1.74.75-3.31,1.51-4.48,2.11a7.69,7.69,0,0,1,1.88-2.07,57.11,57.11,0,0,1,13.25-7.08,1.16,1.16,0,0,0,.8-1,46.16,46.16,0,0,1,2.61-12.75,35.18,35.18,0,0,1,2.18-5l0,0a36.21,36.21,0,0,1,3-4.6,46.32,46.32,0,0,1,9.21-9.19,1.15,1.15,0,0,0,.43-1.24,56.84,56.84,0,0,1-1.38-15A8,8,0,0,1,843,561c.11,1,.26,2.19.47,3.49.63,3.87,1.77,8.68,3.74,11.58a1.17,1.17,0,0,0,1.52.38,39.83,39.83,0,0,1,7.56-2.78,46.51,46.51,0,0,1,8.18-1.4,41.48,41.48,0,0,1,10,.39,1,1,0,0,0,.24,0c6.42,1.13,11.67,3.07,15.69,5.81a24.52,24.52,0,0,1,2.89,2.3,21.19,21.19,0,0,1,1.55,1.6c3.92,4.5,5.69,10.43,5.27,17.63A72.4,72.4,0,0,1,886,635.38a70.12,70.12,0,0,1-7.94,9,42.52,42.52,0,0,1-3.5,3h0c-5.79,4.33-11.73,6.12-17.64,5.32a17.17,17.17,0,0,1-2-.36,22.44,22.44,0,0,1-3.73-1.2C846.69,649.26,842.15,645.93,837.66,641.15Z" transform="translate(-522.19 -42.89)"/><path class="cls-24" d="M879.07,614.2a13.89,13.89,0,0,0-4.21,8,6.86,6.86,0,0,0,2.91-.28A4,4,0,0,0,880,620v0l0,0,0-.07,0,0,0,0v0a4,4,0,0,0,.36-2.92A7,7,0,0,0,879.07,614.2Z" transform="translate(-522.19 -42.89)"/><path class="cls-23" d="M866,625.09a7.15,7.15,0,0,0,4-1.71,17.69,17.69,0,0,0,4.23,1.1,9.63,9.63,0,0,0,4.33-.35,6.33,6.33,0,0,0,3.58-3.07l0-.06,0,0a6.35,6.35,0,0,0,.59-4.69,9.59,9.59,0,0,0-2.08-3.8,18.14,18.14,0,0,0-3.25-2.93,7.22,7.22,0,0,0-.77-4.25,12.39,12.39,0,0,0-1.9-2.87,1.16,1.16,0,0,0-1.65-.07A1.18,1.18,0,0,0,873,604s3.32,3.68,1.65,6.28a5.52,5.52,0,0,1-2.38,2,7.81,7.81,0,0,1-.93.35,7.62,7.62,0,0,1-.83.2,9.66,9.66,0,0,0-1.69-7.46,3.41,3.41,0,0,0-1.83-1.16c-1.86-.41-3.6,1-4.8,2.32a12.77,12.77,0,0,0-2.84,5c-.48,1.6-.84,3.56,0,5.08a2.91,2.91,0,0,0,.57.77,3.39,3.39,0,0,0,1.75.85c2.3.43,5.49-.85,7.27-2.54a8.29,8.29,0,0,1,.32.86,8.88,8.88,0,0,1,.21,1,5.48,5.48,0,0,1-.39,3.11c-1.25,2.81-6.06,2.1-6.15,2.08a1.17,1.17,0,1,0-.37,2.32A12.72,12.72,0,0,0,866,625.09Zm14.5-8.23a4,4,0,0,1-.36,2.92v0l0,0,0,0,0,.07,0,0v0a4,4,0,0,1-2.24,1.91,6.86,6.86,0,0,1-2.91.28,13.89,13.89,0,0,1,4.21-8A7,7,0,0,1,880.49,616.86Zm-19.15-2.07c-1-.52-.78-2.7.39-4.88s2.9-3.52,3.85-3,.78,2.7-.39,4.87S862.29,615.3,861.34,614.79Z" transform="translate(-522.19 -42.89)"/><ellipse class="cls-25" cx="863.46" cy="610.84" rx="4.48" ry="1.96" transform="translate(-605.95 1038.55) rotate(-61.7)"/><path class="cls-18" d="M843.21,618.63c.86-1.55.94-3.86-.56-5.06a4.42,4.42,0,0,0-5-.09c-1.54,1.1-1.87,3.27-1.69,5,.21,1.92,1.2,3.57,3.3,3.18A6.24,6.24,0,0,0,843.21,618.63Z" transform="translate(-522.19 -42.89)"/><path class="cls-23" d="M845.59,632.85c4.59,2.3,6.32-1.89,7-3.26s2.39-6.41-1.42-7.89a6.25,6.25,0,0,0-8.21,3.42,7.21,7.21,0,0,0-.43,1.79A5.69,5.69,0,0,0,845.59,632.85Zm3.31-6.14a2,2,0,1,1-.81-2.68A2,2,0,0,1,848.9,626.71Z" transform="translate(-522.19 -42.89)"/><circle class="cls-18" cx="847.15" cy="625.77" r="1.98" transform="translate(-543.42 1178.84) rotate(-70.91)"/><path class="cls-18" d="M858.77,589.74a6.24,6.24,0,0,0,.39-5c-.83-2-2.76-1.89-4.47-1s-3.2,2.28-3.27,4.17a4.43,4.43,0,0,0,2.81,4.11C856.06,592.66,858,591.32,858.77,589.74Z" transform="translate(-522.19 -42.89)"/><path class="cls-23" d="M865.74,594.74c3.33,2.37,6.63-1.79,7.37-3.15s3.28-5.12-1.16-7.69a5.71,5.71,0,0,0-6.62.77,6.57,6.57,0,0,0-1.25,1.34A6.23,6.23,0,0,0,865.74,594.74Zm2.1-7.38a2,2,0,1,1-2.68.81A2,2,0,0,1,867.84,587.36Z" transform="translate(-522.19 -42.89)"/><circle class="cls-18" cx="344.71" cy="546.21" r="1.98"/></g></g></svg>