<svg xmlns="http://www.w3.org/2000/svg" viewBox="0 0 304.02 98.08"><defs><style>.cls-1{isolation:isolate;}.cls-2{fill:#78f177;}.cls-2,.cls-3{stroke:#39b54a;stroke-miterlimit:10;stroke-width:6px;}.cls-3{fill:#bef8bb;}.cls-4{fill:#d3d3d3;opacity:0.45;mix-blend-mode:overlay;}.cls-5{fill:#36b775;}.cls-6{fill:#fdfdfc;}.cls-7,.cls-8{fill:#c2ff89;}.cls-8{opacity:0.61;}.cls-9{fill:#d6202b;}.cls-10{fill:#b01620;}.cls-11{fill:#ced0ce;}.cls-12{fill:#fff;}.cls-13{fill:#f8e138;}.cls-14{fill:#31201b;}.cls-15{fill:#fa8881;}.cls-16{fill:#5b3c38;}</style></defs><g class="cls-1"><g id="Layer_1" data-name="Layer 1"><path d="M934.46,538.49H937v4.89a7.39,7.39,0,0,1-2.28,1.14,9,9,0,0,1-2.6.4,7,7,0,0,1-3.38-.81,5.91,5.91,0,0,1-2.35-2.22,6.51,6.51,0,0,1,0-6.43,5.9,5.9,0,0,1,2.37-2.22,7.12,7.12,0,0,1,3.41-.8,7.58,7.58,0,0,1,2.88.53,5.79,5.79,0,0,1,2.17,1.55l-1.79,1.66a4.13,4.13,0,0,0-3.12-1.36,4.28,4.28,0,0,0-2.05.48,3.46,3.46,0,0,0-1.4,1.36,4.29,4.29,0,0,0,0,4,3.66,3.66,0,0,0,1.39,1.37,4.2,4.2,0,0,0,2,.49,4.61,4.61,0,0,0,2.17-.52Z" transform="translate(-808.11 -491.08)"/><path d="M948.49,544.71l-2.33-3.36h-2.57v3.36H940.8V532.64H946a6.6,6.6,0,0,1,2.78.54,4.07,4.07,0,0,1,1.82,1.51,4.18,4.18,0,0,1,.64,2.33,3.94,3.94,0,0,1-2.48,3.81l2.7,3.88Zm-.71-9.25a3,3,0,0,0-1.91-.54h-2.28v4.2h2.28a2.9,2.9,0,0,0,1.91-.55,2.19,2.19,0,0,0,0-3.11Z" transform="translate(-808.11 -491.08)"/><path d="M964,542.47v2.24h-9.34V532.64h9.12v2.24h-6.34v2.62h5.6v2.18h-5.6v2.79Z" transform="translate(-808.11 -491.08)"/><path d="M976.79,542.47v2.24h-9.35V532.64h9.12v2.24h-6.34v2.62h5.6v2.18h-5.6v2.79Z" transform="translate(-808.11 -491.08)"/><path d="M991.28,532.64v12.07H989l-6-7.33v7.33h-2.75V532.64h2.3l6,7.33v-7.33Z" transform="translate(-808.11 -491.08)"/><path d="M1011.91,539.53a3,3,0,0,1,.59,1.89,2.76,2.76,0,0,1-1.24,2.43,6.28,6.28,0,0,1-3.59.86h-6.24V532.64h5.9a5.75,5.75,0,0,1,3.38.85,2.66,2.66,0,0,1,1.18,2.29,3,3,0,0,1-.42,1.57,2.87,2.87,0,0,1-1.18,1.08A3.2,3.2,0,0,1,1011.91,539.53Zm-7.7-4.78v2.84H1007a2.83,2.83,0,0,0,1.57-.36,1.2,1.2,0,0,0,.53-1.07,1.18,1.18,0,0,0-.53-1.06,2.83,2.83,0,0,0-1.57-.35Zm4.92,7.49a1.24,1.24,0,0,0,.56-1.12c0-1-.74-1.5-2.23-1.5h-3.25v3h3.25A3.13,3.13,0,0,0,1009.13,542.24Z" transform="translate(-808.11 -491.08)"/><path d="M1023.77,542.12h-5.6l-1.07,2.59h-2.86l5.37-12.07h2.76l5.4,12.07h-2.93Zm-.88-2.12-1.91-4.62-1.92,4.62Z" transform="translate(-808.11 -491.08)"/><path d="M1040.71,539.53a3,3,0,0,1,.59,1.89,2.78,2.78,0,0,1-1.24,2.43,6.28,6.28,0,0,1-3.59.86h-6.24V532.64h5.89a5.79,5.79,0,0,1,3.39.85,2.66,2.66,0,0,1,1.18,2.29,3,3,0,0,1-.42,1.57,2.87,2.87,0,0,1-1.18,1.08A3.2,3.2,0,0,1,1040.71,539.53Zm-7.7-4.78v2.84h2.77a2.83,2.83,0,0,0,1.57-.36,1.22,1.22,0,0,0,.53-1.07,1.2,1.2,0,0,0-.53-1.06,2.83,2.83,0,0,0-1.57-.35Zm4.92,7.49a1.24,1.24,0,0,0,.56-1.12c0-1-.75-1.5-2.23-1.5H1033v3h3.25A3.13,3.13,0,0,0,1037.93,542.24Z" transform="translate(-808.11 -491.08)"/><path d="M1050.15,540.43v4.28h-2.79V540.4l-4.67-7.76h3l3.22,5.36,3.22-5.36h2.74Z" transform="translate(-808.11 -491.08)"/><path d="M1057.1,532.64h5.48a7.67,7.67,0,0,1,3.47.75,5.62,5.62,0,0,1,2.35,2.12,6.47,6.47,0,0,1,0,6.34,5.6,5.6,0,0,1-2.35,2.11,7.67,7.67,0,0,1-3.47.75h-5.48Zm5.34,9.78a4.07,4.07,0,0,0,2.89-1,3.55,3.55,0,0,0,1.08-2.73,3.58,3.58,0,0,0-1.08-2.74,4.06,4.06,0,0,0-2.89-1h-2.55v7.48Z" transform="translate(-808.11 -491.08)"/><path d="M1075,544.1a6,6,0,0,1-2.36-2.23,6.36,6.36,0,0,1,0-6.39,6,6,0,0,1,2.36-2.23,7.46,7.46,0,0,1,6.76,0,6.06,6.06,0,0,1,3.23,5.43,6,6,0,0,1-.87,3.19,6,6,0,0,1-2.36,2.23,7.38,7.38,0,0,1-6.76,0Zm5.32-2.05a3.62,3.62,0,0,0,1.35-1.37,4,4,0,0,0,.49-2,4,4,0,0,0-.49-2,3.49,3.49,0,0,0-1.35-1.37,4.07,4.07,0,0,0-3.87,0,3.49,3.49,0,0,0-1.35,1.37,4,4,0,0,0-.49,2,4,4,0,0,0,.49,2,3.62,3.62,0,0,0,1.35,1.37,4.07,4.07,0,0,0,3.87,0Z" transform="translate(-808.11 -491.08)"/><path d="M1096.45,538.49H1099v4.89a7.28,7.28,0,0,1-2.28,1.14,9,9,0,0,1-2.6.4,7,7,0,0,1-3.38-.81,5.91,5.91,0,0,1-2.35-2.22,6.51,6.51,0,0,1,0-6.43,5.9,5.9,0,0,1,2.37-2.22,7.12,7.12,0,0,1,3.41-.8,7.58,7.58,0,0,1,2.88.53,5.79,5.79,0,0,1,2.17,1.55l-1.79,1.66a4.13,4.13,0,0,0-3.12-1.36,4.28,4.28,0,0,0-2,.48,3.46,3.46,0,0,0-1.4,1.36,4.29,4.29,0,0,0,0,4,3.66,3.66,0,0,0,1.39,1.37,4.2,4.2,0,0,0,2,.49,4.61,4.61,0,0,0,2.17-.52Z" transform="translate(-808.11 -491.08)"/><path d="M1112.13,542.47v2.24h-9.34V532.64h9.12v2.24h-6.34v2.62h5.6v2.18h-5.6v2.79Z" transform="translate(-808.11 -491.08)"/><circle class="cls-2" cx="49.04" cy="49.04" r="46.04"/><circle class="cls-3" cx="49.04" cy="48.02" r="35.35"/><path class="cls-4" d="M902.17,529.41a46.05,46.05,0,0,0-90,0c12.13-6.82,27.85-10.94,45-10.94S890,522.59,902.17,529.41Z" transform="translate(-808.11 -491.08)"/><path class="cls-5" d="M866.31,564.24s-2.9-.49-4.61.76v.43a.45.45,0,0,0,.18.34,3.11,3.11,0,0,0,1.74.46c.24,0,.46,0,.65,0A9.63,9.63,0,0,0,866.31,564.24Z" transform="translate(-808.11 -491.08)"/><path class="cls-6" d="M866.38,564.15l-.07.09Z" transform="translate(-808.11 -491.08)"/><path class="cls-5" d="M866.31,564.24a9.63,9.63,0,0,1-2,2l.63,0H865a3.15,3.15,0,0,0,2-1,.6.6,0,0,1,.25-.25,3.32,3.32,0,0,0,.25-.27A3.91,3.91,0,0,0,866.31,564.24Z" transform="translate(-808.11 -491.08)"/><path class="cls-5" d="M866.31,564.24l.07-.09a34,34,0,0,0,3.82-8.5,11.08,11.08,0,0,0-.2-6.57c-.27.14-.58.29-.93.44a6.83,6.83,0,0,1-1.43,4.24c-1.54,2.1-4.68,4.62-5.94,6.23v5C863.41,563.75,866.31,564.24,866.31,564.24Z" transform="translate(-808.11 -491.08)"/><path class="cls-5" d="M871.05,548.48c-.24.14-.59.35-1,.6a11.08,11.08,0,0,1,.2,6.57,34,34,0,0,1-3.82,8.5l-.07.09a3.91,3.91,0,0,1,1.18.44,2.09,2.09,0,0,0,.14-.17,17.78,17.78,0,0,0,2.37-4,44.42,44.42,0,0,0,2.15-5.9h0a8.8,8.8,0,0,0-.37-5.11A3.33,3.33,0,0,0,871.05,548.48Z" transform="translate(-808.11 -491.08)"/><path class="cls-6" d="M850.19,563.83l.07.09Z" transform="translate(-808.11 -491.08)"/><path class="cls-5" d="M850.26,563.92a8.58,8.58,0,0,0,2.56,2.31,3.13,3.13,0,0,0,1.63-.46.48.48,0,0,0,.18-.34v-.91A7.53,7.53,0,0,0,850.26,563.92Z" transform="translate(-808.11 -491.08)"/><path class="cls-5" d="M850.26,563.92a3.6,3.6,0,0,0-1.5.66,3.74,3.74,0,0,0,2.62,1.63h0a9.2,9.2,0,0,0,1.4,0A8.58,8.58,0,0,1,850.26,563.92Z" transform="translate(-808.11 -491.08)"/><path class="cls-5" d="M848.73,553.68a6.83,6.83,0,0,1-1.44-4.18c-.3-.14-.58-.27-.82-.4a10.85,10.85,0,0,0-.1,6.23,34.39,34.39,0,0,0,3.82,8.5l.07.09a7.53,7.53,0,0,1,4.37.6v-4.66C853.35,558.26,850.25,555.76,848.73,553.68Z" transform="translate(-808.11 -491.08)"/><path class="cls-5" d="M850.26,563.92l-.07-.09a34.39,34.39,0,0,1-3.82-8.5,10.85,10.85,0,0,1,.1-6.23c-.49-.25-.85-.47-1.09-.62a3,3,0,0,0-.73,1,7.47,7.47,0,0,0-.54,3.51l.19,1.68a42.1,42.1,0,0,0,2.08,5.86,17.76,17.76,0,0,0,2.33,4l0,.06A3.6,3.6,0,0,1,850.26,563.92Z" transform="translate(-808.11 -491.08)"/><path class="cls-5" d="M855.73,562.11v2.79h4.87v-2.83a4.59,4.59,0,0,1-4.87,0Z" transform="translate(-808.11 -491.08)"/><path class="cls-7" d="M848.08,549.83l-.79-.33a6.83,6.83,0,0,0,1.44,4.18c1.52,2.08,4.62,4.58,5.9,6.18V558a.56.56,0,0,1,.38-.53,20.58,20.58,0,0,0-3.78-6.71A22.18,22.18,0,0,1,848.08,549.83Z" transform="translate(-808.11 -491.08)"/><path class="cls-7" d="M867.64,553.76a6.83,6.83,0,0,0,1.43-4.24c-.29.14-.61.27-1,.4a21.35,21.35,0,0,1-3.16,1,20.39,20.39,0,0,0-3.7,6.6.55.55,0,0,1,.44.54v2C863,558.38,866.1,555.86,867.64,553.76Z" transform="translate(-808.11 -491.08)"/><path class="cls-7" d="M864.4,551a21.52,21.52,0,0,1-3.59.36,3.21,3.21,0,0,1,.6,1.88,3.26,3.26,0,0,1-6.52,0,3.21,3.21,0,0,1,.62-1.91,25.86,25.86,0,0,1-3.78-.44l-.5-.1a20.58,20.58,0,0,1,3.78,6.71l.17,0a.55.55,0,0,1,.55.55v4.09a4.59,4.59,0,0,0,4.87,0V558a.55.55,0,0,1,.55-.55h.11a20.39,20.39,0,0,1,3.7-6.6Z" transform="translate(-808.11 -491.08)"/><path class="cls-7" d="M839.49,538.61a15.15,15.15,0,0,0,3.57,3.35c5.74,4,13.58,4.42,20.3,3.42a26.59,26.59,0,0,0,7.8-2.32,17.72,17.72,0,0,0,3.77-2.46,15,15,0,0,0,1.63-1.66c.16-.19.44-.48.7-.8a10.34,10.34,0,0,0,.31-1.71c-.63,1-1.88,2-4.39,1.82-4.73-.37-9-8.94-15-9.12-6,.18-10.23,8.75-15,9.12-2.5.2-3.76-.81-4.38-1.82a11.38,11.38,0,0,0,.33,1.81Zm13-4a.55.55,0,0,1,.7.34s.79,2.18,2.23,2.07a2.56,2.56,0,0,0,1.37-.53c-1.32-.36-2.25-1.22-2.25-2.23a1.75,1.75,0,0,1,.22-.83,1.58,1.58,0,0,1,0-.91,1.69,1.69,0,0,1,.19-.41A3.22,3.22,0,0,1,857,531a5.87,5.87,0,0,1,2.7.06c.81.2,1.78.6,2,1.46a1.54,1.54,0,0,1-.07,1,1.73,1.73,0,0,1,.17.73c0,1-.93,1.87-2.26,2.23a2.57,2.57,0,0,0,1.38.53c1.44.11,2.22-2,2.22-2.07a.55.55,0,0,1,1,.36,5.75,5.75,0,0,1-.76,1.42,3.38,3.38,0,0,1-1.58,1.26,8.81,8.81,0,0,1-.49,2,4.45,4.45,0,0,1-1.11,1.71,3,3,0,0,1-2.06.8h-.06a3,3,0,0,1-2.07-.8A4.56,4.56,0,0,1,855,540a7.84,7.84,0,0,1-.49-2,3.45,3.45,0,0,1-1.59-1.26,6.17,6.17,0,0,1-.76-1.42A.55.55,0,0,1,852.47,534.63Z" transform="translate(-808.11 -491.08)"/><path class="cls-5" d="M843.24,538.25c4.74-.37,9-8.94,15-9.12,6,.18,10.24,8.75,15,9.12,2.51.2,3.76-.81,4.39-1.82a18.72,18.72,0,0,0-1.09-7.76l-.05-.1a19.3,19.3,0,0,0-2.06-4.21,21.19,21.19,0,0,0-2.4-3.07,18.78,18.78,0,0,0-2.82-2.5.54.54,0,0,1-.19-.71,14.69,14.69,0,0,1,4-4.12,32.82,32.82,0,0,0-6.29,4.36,18.93,18.93,0,0,0-8.42-2,22.28,22.28,0,0,0-8.86,2,28.4,28.4,0,0,0-5.43-4,13.92,13.92,0,0,1,3.51,3.77.56.56,0,0,1-.18.72,18,18,0,0,0-2.83,2.5,21.91,21.91,0,0,0-2.4,3.07,19.54,19.54,0,0,0-2.06,4.21,18.76,18.76,0,0,0-1.1,7.8C839.48,537.44,840.74,538.45,843.24,538.25Zm26.19-10.76a2.68,2.68,0,0,1,1.79,2.56c-.08,2.41-2.19,2.19-2.92,2.19s-3.17-.44-2.94-2.34a2.93,2.93,0,0,1,3.24-2.63A3.3,3.3,0,0,1,869.43,527.49Zm-4.45-5a2.57,2.57,0,0,1,2.45.42c.75.51,1.21,1.29.58,2.07a2.92,2.92,0,0,1-2.13.94,1.91,1.91,0,0,1-2-1.36A2.08,2.08,0,0,1,865,522.48Zm-16,.42a2.56,2.56,0,0,1,2.45-.42,2.08,2.08,0,0,1,1.07,2.07,1.91,1.91,0,0,1-2,1.36,2.92,2.92,0,0,1-2.13-.94C847.73,524.19,848.19,523.41,848.94,522.9Zm-2,4.59a3.09,3.09,0,0,1,.83-.22A2.92,2.92,0,0,1,851,529.9c.24,1.9-2.21,2.34-2.94,2.34s-2.84.22-2.91-2.19A2.67,2.67,0,0,1,846.94,527.49Z" transform="translate(-808.11 -491.08)"/><path class="cls-8" d="M874.93,540.6a17.72,17.72,0,0,1-3.77,2.46,26.59,26.59,0,0,1-7.8,2.32c-6.72,1-14.56.54-20.3-3.42a15.15,15.15,0,0,1-3.57-3.35l-.3-.37c.09.31.18.61.29.9a11.17,11.17,0,0,0,6.12,6.1h0a18.12,18.12,0,0,0,2,.77,31.77,31.77,0,0,0,5.47,1.29,34,34,0,0,0,17.74-2.07,11.12,11.12,0,0,0,6.1-6.09,8.94,8.94,0,0,0,.32-1c-.26.32-.54.61-.7.8A15,15,0,0,1,874.93,540.6Z" transform="translate(-808.11 -491.08)"/><path class="cls-5" d="M857.41,535.89a4.46,4.46,0,0,1-2.67-2.44,1.75,1.75,0,0,0-.22.83c0,1,.93,1.87,2.25,2.23a3.27,3.27,0,0,0,.35-.3A4,4,0,0,0,857.41,535.89Z" transform="translate(-808.11 -491.08)"/><path class="cls-5" d="M859,535.91a2.32,2.32,0,0,0,.26.3c.12.11.23.21.35.3,1.33-.36,2.26-1.22,2.26-2.23a1.73,1.73,0,0,0-.17-.73A4.52,4.52,0,0,1,859,535.91Z" transform="translate(-808.11 -491.08)"/><path class="cls-5" d="M858.21,516.3a18.93,18.93,0,0,1,8.42,2,32.82,32.82,0,0,1,6.29-4.36c.49-.38,1-.71,1.33-1a3.77,3.77,0,0,0-1.14.3,26.46,26.46,0,0,0-5.87,3.9.54.54,0,0,1-.61.1,21.42,21.42,0,0,0-5.84-1.76,16.86,16.86,0,0,0-2.56-.21h0a16.86,16.86,0,0,0-2.56.21,22,22,0,0,0-5.84,1.76.53.53,0,0,1-.61-.1,26.69,26.69,0,0,0-5.87-3.9,3.53,3.53,0,0,0-1.27-.31c.51.35,1.17.83,1.87,1.38a28.4,28.4,0,0,1,5.43,4A22.28,22.28,0,0,1,858.21,516.3Z" transform="translate(-808.11 -491.08)"/><path class="cls-5" d="M875.49,524.07a20.35,20.35,0,0,1,1.34,2.52,30.54,30.54,0,0,0,.52-5.83,15,15,0,0,0-.9-5.46,6.6,6.6,0,0,0-1-1.82c-.26.17-.64.42-1.07.74A20.92,20.92,0,0,1,875.49,524.07Z" transform="translate(-808.11 -491.08)"/><path class="cls-7" d="M874.42,514.22a17.91,17.91,0,0,0-4.24,4,20.54,20.54,0,0,1,2.57,2.33,23.57,23.57,0,0,1,2.54,3.23c.07.11.14.22.2.33A20.92,20.92,0,0,0,874.42,514.22Z" transform="translate(-808.11 -491.08)"/><path class="cls-5" d="M839.08,520.76a30.36,30.36,0,0,0,.51,5.82,22.23,22.23,0,0,1,1.31-2.45,20.76,20.76,0,0,1,1.08-9.85c-.44-.32-.82-.58-1.08-.75a7.12,7.12,0,0,0-.93,1.77A15,15,0,0,0,839.08,520.76Z" transform="translate(-808.11 -491.08)"/><path class="cls-7" d="M840.9,524.13l.21-.33a23.49,23.49,0,0,1,2.53-3.23,19.75,19.75,0,0,1,2.58-2.33,18.1,18.1,0,0,0-4.24-4A20.76,20.76,0,0,0,840.9,524.13Z" transform="translate(-808.11 -491.08)"/><path class="cls-5" d="M873,555.54a43.81,43.81,0,0,1-2,5.42,20.34,20.34,0,0,1-2.27,3.93h.81a6,6,0,0,0,3.19-.45c1.15-.69,1.62-2.43,1.88-3.69a5.54,5.54,0,0,0-.43-4.2A2.85,2.85,0,0,0,873,555.54Z" transform="translate(-808.11 -491.08)"/><path class="cls-5" d="M840.56,558.13a5,5,0,0,1,.61-1.94c-3.49-2-4-5.93-4-7.51a7.7,7.7,0,0,0-.19,4.54A9.37,9.37,0,0,0,840.56,558.13Z" transform="translate(-808.11 -491.08)"/><path class="cls-5" d="M847.14,564.9h.46a20.09,20.09,0,0,1-2.22-3.92,42.64,42.64,0,0,1-2-5.42c-.68.34-1.82,1.26-1.79,3.55v0a9.93,9.93,0,0,0,.2,1.62c.4,2,1,3.15,2,3.69A6.76,6.76,0,0,0,847.14,564.9Z" transform="translate(-808.11 -491.08)"/><path class="cls-5" d="M841.17,556.19a2.33,2.33,0,0,1,.17-.26,3.86,3.86,0,0,1,1.81-1.47c0-.35-.09-.69-.11-1a8.38,8.38,0,0,1-2.92-1.84,9.1,9.1,0,0,1-1.84-2.53,10.67,10.67,0,0,1-.66-1.65,12.66,12.66,0,0,0-.5,1.26C837.17,550.26,837.68,554.17,841.17,556.19Z" transform="translate(-808.11 -491.08)"/><path class="cls-9" d="M856.16,550.23v-.69A22.76,22.76,0,0,1,845.92,547v.5a14.28,14.28,0,0,0,2.61,1.3A22,22,0,0,0,856.16,550.23Z" transform="translate(-808.11 -491.08)"/><path class="cls-10" d="M856.16,549.54v-.82c-1.09-.06-2.18-.17-3.27-.34a32.14,32.14,0,0,1-7-1.81V547A22.76,22.76,0,0,0,856.16,549.54Z" transform="translate(-808.11 -491.08)"/><path class="cls-9" d="M864.17,549.91a19.28,19.28,0,0,0,3.51-1,16.87,16.87,0,0,0,2.83-1.39v-.42a22.93,22.93,0,0,1-10.39,2.53v.62A19.61,19.61,0,0,0,864.17,549.91Z" transform="translate(-808.11 -491.08)"/><path class="cls-10" d="M870.51,547.1v-.56a34.9,34.9,0,0,1-9.32,2.11l-1.07.08v.9A22.93,22.93,0,0,0,870.51,547.1Z" transform="translate(-808.11 -491.08)"/><path class="cls-6" d="M857.26,549.55v.54a3.3,3.3,0,0,1,.89-.12,3.1,3.1,0,0,1,.87.12v-.54Z" transform="translate(-808.11 -491.08)"/><path class="cls-11" d="M859,548.77h-1.76v.78H859Z" transform="translate(-808.11 -491.08)"/><path class="cls-12" d="M860.31,553.23a2.16,2.16,0,0,0-1.56-2.08,2.14,2.14,0,0,1,.63,2.48,2.08,2.08,0,0,1-2.52,1.32,2.16,2.16,0,0,0,3.45-1.72Z" transform="translate(-808.11 -491.08)"/><path class="cls-13" d="M859.38,553.63a2.14,2.14,0,0,0-.63-2.48,2.35,2.35,0,0,0-.6-.08,2.16,2.16,0,0,0-2.16,2.16,2.14,2.14,0,0,0,.87,1.72A2.08,2.08,0,0,0,859.38,553.63Z" transform="translate(-808.11 -491.08)"/><path class="cls-14" d="M878,539.52c1.15-3,1-6.76-.41-11.09a31.41,31.41,0,0,0,.89-7.68,16.09,16.09,0,0,0-1-5.86,6.74,6.74,0,0,0-1.43-2.41h0a.59.59,0,0,0-.29-.23,2.43,2.43,0,0,0-1.52-.35,4.37,4.37,0,0,0-1.57.4,27.83,27.83,0,0,0-5.91,3.85,22.45,22.45,0,0,0-5.84-1.7,16.8,16.8,0,0,0-5.42,0,22.38,22.38,0,0,0-5.83,1.7,27.83,27.83,0,0,0-5.91-3.85,4.43,4.43,0,0,0-1.57-.4,2.3,2.3,0,0,0-1.73.51h0a6.53,6.53,0,0,0-1.5,2.48,16.09,16.09,0,0,0-1,5.86,31.41,31.41,0,0,0,.89,7.68c-1.42,4.33-1.56,8.06-.42,11.09a12,12,0,0,0,6.37,6.56v1.43a4,4,0,0,0-1.1,1.4,7.54,7.54,0,0,0-.72,3.32,7.35,7.35,0,0,1-2.1-1.4,8.15,8.15,0,0,1-1.62-2.22,9.1,9.1,0,0,1-.9-2.8.56.56,0,0,0-.43-.48.54.54,0,0,0-.59.26,9.21,9.21,0,0,0,1.38,12.48,13,13,0,0,0,1.78,1.37,11.11,11.11,0,0,0,.21,1.54c.47,2.32,1.27,3.72,2.51,4.43a7.51,7.51,0,0,0,3.92.59h1.42a4.15,4.15,0,0,0,2.76,1.32,6.8,6.8,0,0,0,.86,0,4.92,4.92,0,0,0,3-.75,1.58,1.58,0,0,0,.44-.6h5.11a1.67,1.67,0,0,0,.43.6,5,5,0,0,0,3,.75,6.8,6.8,0,0,0,.86,0,4.2,4.2,0,0,0,2.76-1.31h2.57a5.57,5.57,0,0,0,3-.61,4,4,0,0,0,1.44-1.58,10.55,10.55,0,0,0,1-2.84,6.54,6.54,0,0,0-.61-5.05,3.9,3.9,0,0,0-1.81-1.47,9.46,9.46,0,0,0-.57-5.55,4,4,0,0,0-1.1-1.4v-1.43A12,12,0,0,0,878,539.52Zm-3.35,21.24c-.26,1.26-.73,3-1.88,3.69a6,6,0,0,1-3.19.45h-.81A20.34,20.34,0,0,0,871,561a43.81,43.81,0,0,0,2-5.42,2.85,2.85,0,0,1,1.17,1A5.54,5.54,0,0,1,874.62,560.76Zm-2.47-6.15h0a44.42,44.42,0,0,1-2.15,5.9,17.78,17.78,0,0,1-2.37,4,2.09,2.09,0,0,1-.14.17,3.32,3.32,0,0,1-.25.27.6.6,0,0,0-.25.25,3.15,3.15,0,0,1-2,1h-.05l-.63,0c-.19,0-.41,0-.65,0a3.11,3.11,0,0,1-1.74-.46.45.45,0,0,1-.18-.34V558a.55.55,0,0,0-.44-.54h-.11a.55.55,0,0,0-.55.55v6.88h-4.87V558a.55.55,0,0,0-.55-.55l-.17,0a.56.56,0,0,0-.38.53v7.41a.48.48,0,0,1-.18.34,3.13,3.13,0,0,1-1.63.46,9.2,9.2,0,0,1-1.4,0h0a3.74,3.74,0,0,1-2.62-1.63l0-.06a17.76,17.76,0,0,1-2.33-4,42.1,42.1,0,0,1-2.08-5.86l-.19-1.68a7.47,7.47,0,0,1,.54-3.51,3,3,0,0,1,.73-1c.24.15.6.37,1.09.62.24.13.52.26.82.4l.79.33a22.18,22.18,0,0,0,3.15.95l.5.1a25.86,25.86,0,0,0,3.78.44,3.21,3.21,0,0,0-.62,1.91,3.26,3.26,0,0,0,6.52,0,3.21,3.21,0,0,0-.6-1.88,21.52,21.52,0,0,0,3.59-.36l.56-.11a21.35,21.35,0,0,0,3.16-1c.34-.13.66-.26,1-.4s.66-.3.93-.44c.46-.25.81-.46,1-.6a3.33,3.33,0,0,1,.73,1A8.8,8.8,0,0,1,872.15,554.61Zm-30.34,6.15a9.93,9.93,0,0,1-.2-1.62v0c0-2.29,1.11-3.21,1.79-3.55a42.64,42.64,0,0,0,2,5.42,20.09,20.09,0,0,0,2.22,3.92h-.46a6.76,6.76,0,0,1-3.35-.45C842.84,563.91,842.21,562.74,841.81,560.76Zm-4.69-12.08a12.66,12.66,0,0,1,.5-1.26,10.67,10.67,0,0,0,.66,1.65,9.1,9.1,0,0,0,1.84,2.53,8.38,8.38,0,0,0,2.92,1.84c0,.33.06.67.11,1a3.86,3.86,0,0,0-1.81,1.47,2.33,2.33,0,0,0-.17.26,5,5,0,0,0-.61,1.94,9.37,9.37,0,0,1-3.63-4.91A7.7,7.7,0,0,1,837.12,548.68ZM856,553.23a2.16,2.16,0,0,1,2.16-2.16,2.35,2.35,0,0,1,.6.08,2.16,2.16,0,1,1-1.89,3.8A2.14,2.14,0,0,1,856,553.23Zm2.16-3.26a3.3,3.3,0,0,0-.89.12v-1.32H859v1.32A3.1,3.1,0,0,0,858.15,550Zm-12.23-2.45v-.95a32.14,32.14,0,0,0,7,1.81c1.09.17,2.18.28,3.27.34v1.51a22,22,0,0,1-7.63-1.41A14.28,14.28,0,0,1,845.92,547.52Zm14.2,2.11v-.9l1.07-.08a34.9,34.9,0,0,0,9.32-2.11v1a16.87,16.87,0,0,1-2.83,1.39,19.28,19.28,0,0,1-3.51,1,19.61,19.61,0,0,1-4,.34Zm16.33-34.33a15,15,0,0,1,.9,5.46,30.54,30.54,0,0,1-.52,5.83,20.35,20.35,0,0,0-1.34-2.52c-.06-.11-.13-.22-.2-.33a23.57,23.57,0,0,0-2.54-3.23,20.54,20.54,0,0,0-2.57-2.33,17.91,17.91,0,0,1,4.24-4c.43-.32.81-.57,1.07-.74A6.6,6.6,0,0,1,876.45,515.3Zm-35.55-1.77c.26.17.64.43,1.08.75a18.1,18.1,0,0,1,4.24,4,19.75,19.75,0,0,0-2.58,2.33,23.49,23.49,0,0,0-2.53,3.23l-.21.33a22.23,22.23,0,0,0-1.31,2.45,30.36,30.36,0,0,1-.51-5.82,15,15,0,0,1,.89-5.46A7.12,7.12,0,0,1,840.9,513.53Zm-.94,15.1a19.54,19.54,0,0,1,2.06-4.21,21.91,21.91,0,0,1,2.4-3.07,18,18,0,0,1,2.83-2.5.56.56,0,0,0,.18-.72,13.92,13.92,0,0,0-3.51-3.77c-.7-.55-1.36-1-1.87-1.38a3.53,3.53,0,0,1,1.27.31,26.69,26.69,0,0,1,5.87,3.9.53.53,0,0,0,.61.1,22,22,0,0,1,5.84-1.76,16.86,16.86,0,0,1,2.56-.21h0a16.86,16.86,0,0,1,2.56.21,21.42,21.42,0,0,1,5.84,1.76.54.54,0,0,0,.61-.1,26.46,26.46,0,0,1,5.87-3.9,3.77,3.77,0,0,1,1.14-.3c-.38.26-.84.59-1.33,1a14.69,14.69,0,0,0-4,4.12.54.54,0,0,0,.19.71,18.78,18.78,0,0,1,2.82,2.5,21.19,21.19,0,0,1,2.4,3.07,19.3,19.3,0,0,1,2.06,4.21l.05.1a18.72,18.72,0,0,1,1.09,7.76,10.34,10.34,0,0,1-.31,1.71,8.94,8.94,0,0,1-.32,1,11.12,11.12,0,0,1-6.1,6.09,34,34,0,0,1-17.74,2.07,31.77,31.77,0,0,1-5.47-1.29,18.12,18.12,0,0,1-2-.77h0a11.17,11.17,0,0,1-6.12-6.1c-.11-.29-.2-.59-.29-.9a11.38,11.38,0,0,1-.33-1.81A18.76,18.76,0,0,1,840,528.63Z" transform="translate(-808.11 -491.08)"/><path class="cls-15" d="M860.29,539.73a6.48,6.48,0,0,0-4.23,0,3.34,3.34,0,0,0,.76,1.15,1.91,1.91,0,0,0,1.29.5h.11a1.88,1.88,0,0,0,1.29-.5A3.28,3.28,0,0,0,860.29,539.73Z" transform="translate(-808.11 -491.08)"/><path class="cls-14" d="M852.89,536.75a3.45,3.45,0,0,0,1.59,1.26,7.84,7.84,0,0,0,.49,2,4.56,4.56,0,0,0,1.1,1.71,3,3,0,0,0,2.07.8h.06a3,3,0,0,0,2.06-.8,4.45,4.45,0,0,0,1.11-1.71,8.81,8.81,0,0,0,.49-2,3.38,3.38,0,0,0,1.58-1.26,5.75,5.75,0,0,0,.76-1.42.55.55,0,0,0-1-.36s-.78,2.18-2.22,2.07a2.57,2.57,0,0,1-1.38-.53c-.12-.09-.23-.19-.35-.3a2.32,2.32,0,0,1-.26-.3,4.52,4.52,0,0,0,2.7-2.36,1.54,1.54,0,0,0,.07-1c-.24-.86-1.21-1.26-2-1.46A5.87,5.87,0,0,0,857,531a3.22,3.22,0,0,0-2.11,1.11,1.69,1.69,0,0,0-.19.41,1.58,1.58,0,0,0,0,.91,4.46,4.46,0,0,0,2.67,2.44,4,4,0,0,1-.29.32,3.27,3.27,0,0,1-.35.3,2.56,2.56,0,0,1-1.37.53c-1.44.11-2.21-2-2.23-2.07a.55.55,0,0,0-1,.36A6.17,6.17,0,0,0,852.89,536.75Zm6.62,4.16a1.88,1.88,0,0,1-1.29.5h-.11a1.91,1.91,0,0,1-1.29-.5,3.34,3.34,0,0,1-.76-1.15,6.48,6.48,0,0,1,4.23,0A3.28,3.28,0,0,1,859.51,540.91Zm-3.4-8.37c0-.51.94-.92,2.1-.92s2.1.41,2.1.92-.94.92-2.1.92S856.11,533,856.11,532.54Z" transform="translate(-808.11 -491.08)"/><ellipse class="cls-16" cx="50.09" cy="41.45" rx="2.1" ry="0.92"/><path class="cls-6" d="M850.49,525.91a1.91,1.91,0,0,0,2-1.36,2.08,2.08,0,0,0-1.07-2.07,2.56,2.56,0,0,0-2.45.42c-.75.51-1.21,1.29-.58,2.07A2.92,2.92,0,0,0,850.49,525.91Z" transform="translate(-808.11 -491.08)"/><path class="cls-14" d="M845.15,530.05c.07,2.41,2.19,2.19,2.91,2.19s3.18-.44,2.94-2.34a2.92,2.92,0,0,0-3.23-2.63,3.09,3.09,0,0,0-.83.22A2.67,2.67,0,0,0,845.15,530.05Zm3.27,0a.93.93,0,1,1,.93-.93A.93.93,0,0,1,848.42,530.05Z" transform="translate(-808.11 -491.08)"/><circle class="cls-6" cx="848.42" cy="529.12" r="0.93" transform="translate(-881.92 -348.35) rotate(-9.22)"/><path class="cls-6" d="M865.88,525.91A2.92,2.92,0,0,0,868,525c.63-.78.17-1.56-.58-2.07a2.57,2.57,0,0,0-2.45-.42,2.08,2.08,0,0,0-1.07,2.07A1.91,1.91,0,0,0,865.88,525.91Z" transform="translate(-808.11 -491.08)"/><path class="cls-14" d="M865.36,529.9c-.23,1.9,2.22,2.34,2.94,2.34s2.84.22,2.92-2.19a2.68,2.68,0,0,0-1.79-2.56,3.3,3.3,0,0,0-.83-.22A2.93,2.93,0,0,0,865.36,529.9Zm3.52-.78a.93.93,0,1,1-.93-.92A.93.93,0,0,1,868.88,529.12Z" transform="translate(-808.11 -491.08)"/><circle class="cls-6" cx="59.83" cy="38.04" r="0.93"/></g></g></svg>