<svg id="Layer_1" data-name="Layer 1" xmlns="http://www.w3.org/2000/svg" viewBox="0 0 758.62 758.53"><defs><style>.cls-1,.cls-18{fill:#8ec96f;}.cls-1{stroke:#3db54a;stroke-miterlimit:10;stroke-width:6px;}.cls-2{fill:#fff;}.cls-3,.cls-4{fill:#37b776;}.cls-18,.cls-4{fill-rule:evenodd;}.cls-5{fill:#5e3428;}.cls-6{fill:#010101;}.cls-7{opacity:0.15;}.cls-8{fill:#fffffd;}.cls-10,.cls-9{fill:#c6de82;}.cls-10{opacity:0.61;}.cls-11{fill:#d61f2b;}.cls-12{fill:#b01f24;}.cls-13{fill:#cfd0ce;}.cls-14{fill:#f8e139;}.cls-15{fill:#31201b;}.cls-16{fill:#f58982;}.cls-17{fill:#5c3d39;}</style></defs><title>h5(1)</title><path class="cls-1" d="M1418.52,518.54C1417.7,721.86,1252.2,886,1048.87,885.2S681.4,718.9,682.2,515.58,848.51,148.1,1051.83,148.9,1419.33,315.22,1418.52,518.54Z" transform="translate(-670.67 -132.26)"/><path class="cls-2" d="M822.62,313.07c-55.75,63.24-76.18,132-87.74,121.85s2.63-79.16,58.39-142.4,132-96.81,143.51-86.62S878.38,249.83,822.62,313.07Z" transform="translate(-670.67 -132.26)"/><path class="cls-2" d="M737.79,470.51c-1.75,11.53-8.76,20-15.65,19s-11.06-11.24-9.31-22.77,8.75-20,15.65-19S739.54,459,737.79,470.51Z" transform="translate(-670.67 -132.26)"/><path class="cls-3" d="M808.24,794.35a366.74,366.74,0,0,0,240.63,90.85c203.33.82,368.83-163.34,369.65-366.66a366.28,366.28,0,0,0-57.69-199.33,418.58,418.58,0,0,1,8.34,84.93c-.93,230.47-188.52,416.54-419,415.62A416.5,416.5,0,0,1,808.24,794.35Z" transform="translate(-670.67 -132.26)"/><path class="cls-4" d="M1118.47,532.29a22.6,22.6,0,0,0-13-7.56,19,19,0,0,1,4,3.54c7.58,9,5.43,23.27-4.78,31.88s-24.65,8.27-32.23-.73a18.92,18.92,0,0,1-2-2.82,22.35,22.35,0,0,0,5.07,11.81c8.79,10.44,25.51,10.82,37.36.84S1127.26,542.73,1118.47,532.29Z" transform="translate(-670.67 -132.26)"/><path class="cls-5" d="M1084.44,521l1.26-.75a23.36,23.36,0,0,1,10.59-2.82,22.48,22.48,0,0,1,9,1.64,22.2,22.2,0,0,1,4.8,2.66,18.93,18.93,0,0,1,2.25,1.89l.55.52.58.66.86,1a9.21,9.21,0,0,1,.94,1.24c.31.48.63,1,1,1.46.52,1,1,1.91,1.47,2.93a19.94,19.94,0,0,1,1.08,3.16c.14.55.27,1.1.41,1.65s.17,1.12.25,1.69a27.66,27.66,0,0,1-1.72,13.74,31.83,31.83,0,0,1-3.27,6.32,34.78,34.78,0,0,1-4.64,5.42l-1.32,1.19-.08.08-.27.21-.15.12-.3.22-.6.45c-.43.32-.72.58-1.27.94l-1.62,1a27,27,0,0,1-3.21,1.7c-1.08.48-2.19.89-3.3,1.29a29.79,29.79,0,0,1-13.73,1.13,25.34,25.34,0,0,1-11.85-5.26,27.89,27.89,0,0,1-2.23-2.1c-.68-.73-1.28-1.52-1.87-2.27l-.22-.29,0-.07-.08-.13-.15-.26-.3-.53-.59-1a16.52,16.52,0,0,1-1.13-2.44,21.84,21.84,0,0,1-1.35-4.88c-.11-.76-.12-1.52-.17-2.24a11.33,11.33,0,0,1,0-2.1,22.64,22.64,0,0,1,1.41-6.65c.35-.87.66-1.62,1-2.26l.92-1.55.78-1.25s-.07.51-.19,1.46q-.09.71-.24,1.71c0,.68,0,1.46-.07,2.3a17,17,0,0,0,.14,2.78,23.82,23.82,0,0,0,.53,3.13,9.28,9.28,0,0,0,.49,1.64c.2.55.35,1.12.59,1.67a18.59,18.59,0,0,0,1.78,3.14,11.45,11.45,0,0,0,1.14,1.53c.27.29.53.59.8.89l.4.45.2.22.1.12,0,0c0,.06-.31-.4-.15-.2l0,0c.54.41,1,.88,1.56,1.28a18.1,18.1,0,0,0,1.73,1.1,19,19,0,0,0,8.17,2.32,23.62,23.62,0,0,0,9.07-1.52c.73-.31,1.46-.62,2.18-1l1-.58a6.21,6.21,0,0,0,1-.58l.91-.57c.3-.17.76-.58,1.13-.85l.59-.47.3-.23.14-.11,0,0-.16.13.06-.06.89-.83a23.52,23.52,0,0,0,5.58-7.75l.47-1.08c.12-.37.23-.74.36-1.11a17.48,17.48,0,0,0,.63-2.22,20.7,20.7,0,0,0,.43-4.47l0-1.1-.14-1.07a20.51,20.51,0,0,0-.41-2.1c-.17-.68-.43-1.35-.64-2l-.36-.82a4.4,4.4,0,0,0-.46-.94l-.68-1.09-.16-.27-.09-.14,0-.07.12.15v0l-.31-.41a19.23,19.23,0,0,0-1.26-1.57,17.37,17.37,0,0,0-2.93-2.58,20.48,20.48,0,0,0-6.56-3.06,26.81,26.81,0,0,0-5.91-.91,34.83,34.83,0,0,0-4,.12Z" transform="translate(-670.67 -132.26)"/><path class="cls-6" d="M1049.9,890.78A377.92,377.92,0,0,1,918,867c-121.73-45.16-211-147.94-238.69-275A379.12,379.12,0,1,1,1049.9,890.78Zm.07-736.5c-148.59,0-283.17,93.65-334.89,233a356.22,356.22,0,0,0-14.21,200.05C727,707,811,803.81,925.7,846.34a356,356,0,0,0,124.2,22.41c148.59,0,283.16-93.64,334.86-233,68.49-184.62-26-390.55-210.62-459.06A356,356,0,0,0,1050,154.28Z" transform="translate(-670.67 -132.26)"/><path class="cls-4" d="M811.75,615.55c2.4,4.1.09,9.9-5.12,13s-11.41,2.19-13.8-1.92-.1-9.9,5.12-13S809.36,611.44,811.75,615.55Z" transform="translate(-670.67 -132.26)"/><path class="cls-4" d="M900.91,328c2.39,4.09.09,9.9-5.13,12.94S884.37,343.09,882,339s-.09-9.91,5.13-12.95S898.51,323.85,900.91,328Z" transform="translate(-670.67 -132.26)"/><path class="cls-4" d="M1120.33,455.19c2.39,4.1.09,9.9-5.14,12.95s-11.39,2.18-13.78-1.92-.1-9.91,5.12-13S1117.93,451.08,1120.33,455.19Z" transform="translate(-670.67 -132.26)"/><path class="cls-4" d="M1138.12,270.74c2.4,4.11.1,9.91-5.13,12.95s-11.41,2.19-13.79-1.92-.1-9.9,5.13-12.95S1135.73,266.63,1138.12,270.74Z" transform="translate(-670.67 -132.26)"/><path class="cls-4" d="M1315.78,375.9c2.4,4.11.09,9.92-5.13,13s-11.4,2.19-13.79-1.92-.1-9.9,5.13-12.95S1313.39,371.8,1315.78,375.9Z" transform="translate(-670.67 -132.26)"/><path class="cls-4" d="M923,501.29c2.4,4.11.09,9.91-5.13,12.95s-11.4,2.19-13.79-1.92-.1-9.9,5.13-13S920.65,497.18,923,501.29Z" transform="translate(-670.67 -132.26)"/><path class="cls-4" d="M1048.42,707.81c2.39,4.1.09,9.9-5.13,12.94s-11.41,2.18-13.8-1.92-.09-9.9,5.13-13S1046,703.7,1048.42,707.81Z" transform="translate(-670.67 -132.26)"/><path class="cls-4" d="M1219.9,589.79c2.39,4.11.09,9.91-5.13,13s-11.41,2.19-13.8-1.92-.09-9.9,5.13-13S1217.51,585.68,1219.9,589.79Z" transform="translate(-670.67 -132.26)"/><g class="cls-7"><path class="cls-3" d="M1128.66,730.31s-24.7-4.15-39.33,6.5v3.69a3.9,3.9,0,0,0,1.49,2.84c2.5,2.17,7.8,3.59,14.93,4,2,.12,3.92.14,5.55.12C1120.75,741.13,1128.66,730.31,1128.66,730.31Z" transform="translate(-670.67 -132.26)"/><path class="cls-8" d="M1129.27,729.54l-.61.77C1128.84,730.1,1129.05,729.84,1129.27,729.54Z" transform="translate(-670.67 -132.26)"/><path class="cls-3" d="M1128.66,730.31s-7.91,10.82-17.36,17.14c3.17-.05,5.33-.26,5.37-.26l.38,0c5.61-.09,11.46-3,17.44-8.64a4.7,4.7,0,0,1,2.13-2.12c.71-.75,1.43-1.53,2.14-2.36A34,34,0,0,0,1128.66,730.31Z" transform="translate(-670.67 -132.26)"/><path class="cls-3" d="M1128.66,730.31l.61-.77c5.57-7.37,23.87-41.26,32.65-72.56,8.17-29.1-.48-51.26-1.76-56.12-2.32,1.2-5,2.5-7.92,3.83.25,6.87-1,20.8-12.24,36.18-13.09,17.91-40,39.44-50.67,53.12v42.82C1104,726.16,1128.66,730.31,1128.66,730.31Z" transform="translate(-670.67 -132.26)"/><path class="cls-3" d="M1169.12,595.75c-2,1.26-5,3-9,5.11,1.28,4.86,9.93,27,1.76,56.12-8.78,31.3-27.08,65.19-32.65,72.56-.22.3-.43.56-.61.77a34,34,0,0,1,10.1,3.74c.41-.46.82-.94,1.22-1.43,6.8-8.2,13.59-19.67,20.19-34.11a369.57,369.57,0,0,0,18.33-50.41h0c3.58-22.88.27-36.33-3.18-43.62A26.91,26.91,0,0,0,1169.12,595.75Z" transform="translate(-670.67 -132.26)"/><path class="cls-8" d="M991.09,726.81c.22.3.43.56.61.77Z" transform="translate(-670.67 -132.26)"/><path class="cls-3" d="M991.7,727.58s10.56,14.45,21.85,19.7c5.65-.43,11.19-1.58,13.91-3.94a3.89,3.89,0,0,0,1.48-2.84v-7.8C1014.18,723.8,991.7,727.58,991.7,727.58Z" transform="translate(-670.67 -132.26)"/><path class="cls-3" d="M991.7,727.58s-7.84,1.39-12.8,5.66c7.65,9.13,15.16,13.81,22.33,13.93l.38,0a74.24,74.24,0,0,0,11.94.09C1002.26,742,991.7,727.58,991.7,727.58Z" transform="translate(-670.67 -132.26)"/><path class="cls-3" d="M978.58,640.19c-11-15.06-12.42-28.72-12.25-35.73-2.6-1.16-4.94-2.29-7-3.36a93.06,93.06,0,0,0-.88,53.15c8.79,31.29,27.09,65.18,32.66,72.56l.61.77s22.48-3.78,37.24,5.12V692.91C1018,679.22,991.55,657.93,978.58,640.19Z" transform="translate(-670.67 -132.26)"/><path class="cls-3" d="M991.7,727.58c-.18-.21-.39-.47-.61-.77-5.57-7.38-23.87-41.27-32.66-72.56a93.06,93.06,0,0,1,.88-53.15c-4.16-2.13-7.28-4-9.33-5.32a26.89,26.89,0,0,0-6.18,8.69c-2.7,5.7-5.31,15.17-4.61,30l1.57,14.32a366.63,366.63,0,0,0,17.83,50c6.46,14.36,13.15,25.78,19.86,33.94l.45.53C983.86,729,991.7,727.58,991.7,727.58Z" transform="translate(-670.67 -132.26)"/><path class="cls-3" d="M1038.34,712.11v23.81h41.6V711.78a38.92,38.92,0,0,1-41.6.33Z" transform="translate(-670.67 -132.26)"/><path class="cls-9" d="M973.08,607.28q-3.62-1.42-6.75-2.82c-.17,7,1.24,20.67,12.25,35.73,13,17.74,39.45,39,50.36,52.72v-15.7a4.7,4.7,0,0,1,3.28-4.48c-6.37-25-27.86-52-32.25-57.36A180.73,180.73,0,0,1,973.08,607.28Z" transform="translate(-670.67 -132.26)"/><path class="cls-9" d="M1140,640.87c11.25-15.38,12.49-29.31,12.24-36.18-2.49,1.12-5.19,2.27-8.11,3.41a177.84,177.84,0,0,1-27,8.12c-5.59,6.92-25.4,32.59-31.53,56.39a4.69,4.69,0,0,1,3.74,4.6V694C1100.05,680.31,1126.91,658.78,1140,640.87Z" transform="translate(-670.67 -132.26)"/><path class="cls-9" d="M1112.37,617.19a180.29,180.29,0,0,1-30.61,3.1,27.81,27.81,0,1,1-45.26-.31,210.42,210.42,0,0,1-32.27-3.72c-1.43-.28-2.85-.58-4.26-.89,4.39,5.35,25.88,32.41,32.25,57.36a4.79,4.79,0,0,1,1.42-.22,4.7,4.7,0,0,1,4.7,4.7v34.9a38.92,38.92,0,0,0,41.6-.33V677.21a4.69,4.69,0,0,1,4.7-4.7,4.32,4.32,0,0,1,.95.1c6.13-23.8,25.94-49.47,31.53-56.39C1115.54,616.57,1114,616.89,1112.37,617.19Z" transform="translate(-670.67 -132.26)"/><path class="cls-9" d="M899.75,511.55a132.32,132.32,0,0,0,30.43,28.6c49,33.75,116,37.73,173.3,29.19,22.94-3.42,45.72-9.58,66.59-19.84a150.12,150.12,0,0,0,32.16-21,125.6,125.6,0,0,0,13.94-14.12c1.37-1.64,3.76-4.15,6-6.84a96.37,96.37,0,0,0,2.62-14.56c-5.35,8.6-16.06,17.21-37.43,15.52-40.45-3.19-76.59-76.38-127.79-77.89-51.2,1.51-87.35,74.7-127.79,77.89-21.38,1.69-32.09-6.92-37.44-15.52a95.93,95.93,0,0,0,2.86,15.43C898.17,509.59,899.08,510.68,899.75,511.55Zm110.8-34a4.69,4.69,0,0,1,6,2.89c.12.34,6.74,18.65,19,17.71a22.1,22.1,0,0,0,11.71-4.51c-11.3-3.1-19.25-10.45-19.25-19a14.52,14.52,0,0,1,1.92-7.13,13.27,13.27,0,0,1-.31-7.75,12.38,12.38,0,0,1,1.62-3.5c3.81-5.7,11.41-8.19,18-9.53a51.44,51.44,0,0,1,23,.52c7,1.72,15.25,5.18,17.31,12.51a13.72,13.72,0,0,1-.63,8.65,14.21,14.21,0,0,1,1.46,6.23c0,8.58-7.95,15.93-19.25,19a22.1,22.1,0,0,0,11.71,4.51c12.33.95,19-17.52,19-17.71a4.69,4.69,0,0,1,8.87,3.08,50.79,50.79,0,0,1-6.49,12.13c-4,5.42-8.56,9.05-13.55,10.77a72.08,72.08,0,0,1-4.15,17,38.56,38.56,0,0,1-9.45,14.57,25.35,25.35,0,0,1-17.64,6.79h-.49a25.35,25.35,0,0,1-17.64-6.79,38.56,38.56,0,0,1-9.45-14.57,71.58,71.58,0,0,1-4.15-17c-5-1.72-9.58-5.35-13.55-10.77a50.79,50.79,0,0,1-6.49-12.13A4.69,4.69,0,0,1,1010.55,477.54Z" transform="translate(-670.67 -132.26)"/><path class="cls-3" d="M931.78,508.47c40.44-3.19,76.59-76.38,127.79-77.89,51.2,1.51,87.34,74.7,127.79,77.89,21.37,1.69,32.08-6.92,37.43-15.52,2-19.36-1.09-41.55-9.31-66.3a5.08,5.08,0,0,1-.4-.85,166.32,166.32,0,0,0-17.57-35.95A185.16,185.16,0,0,0,1177,363.69c-13.09-13.95-24-21.3-24.14-21.38a4.7,4.7,0,0,1-1.56-6.08c6.5-12.47,21.27-25.57,33.74-35.14-21.82,9.4-53.66,37.19-53.66,37.19-35.3-18.43-71.84-17.18-71.84-17.18-40.93,0-75.68,17.18-75.68,17.18-20.58-18.41-36.47-28.49-46.37-33.76,11.56,9.22,24.14,21,30,32.22a4.7,4.7,0,0,1-1.57,6.08c-.1.07-11,7.42-24.13,21.38a184,184,0,0,0-20.48,26.16,166.41,166.41,0,0,0-17.57,35.93c-8.31,24.89-11.46,47.2-9.43,66.66C899.69,501.55,910.4,510.16,931.78,508.47Zm223.55-91.86c9.17,3.82,15.56,11.59,15.25,21.87-.63,20.53-18.68,18.66-24.88,18.66s-27.13-3.75-25.1-20c1.82-14.55,14.18-24,27.61-22.42A26.55,26.55,0,0,1,1155.33,416.61Zm-38-42.78c6.79-3.33,15.07-.38,20.91,3.61,6.38,4.36,10.32,11,5,17.66-4.11,5.12-11.86,7.9-18.22,8-7.1.11-15.39-4-16.79-11.58C1107,384.86,1111.28,376.79,1117.31,373.83Zm-136.9,3.61c5.83-4,14.11-6.94,20.91-3.61,6,3,10.35,11,9.12,17.69-1.39,7.58-9.69,11.69-16.78,11.58-6.37-.1-14.12-2.88-18.22-8C970.09,388.43,974,381.8,980.41,377.44ZM963.3,416.61a26.58,26.58,0,0,1,7.11-1.88c13.43-1.58,25.8,7.87,27.62,22.42,2,16.24-18.9,20-25.1,20s-24.26,1.87-24.88-18.66C947.74,428.2,954.12,420.43,963.3,416.61Z" transform="translate(-670.67 -132.26)"/><path class="cls-10" d="M1202.23,528.47a150.12,150.12,0,0,1-32.16,21c-20.87,10.26-43.65,16.42-66.59,19.84-57.32,8.54-124.29,4.56-173.3-29.19a132.32,132.32,0,0,1-30.43-28.6c-.67-.87-1.58-2-2.55-3.17q1.06,3.92,2.47,7.64c8.42,22.37,26,39.89,52.23,52.07H952a164.19,164.19,0,0,0,17.24,6.62,283.3,283.3,0,0,0,46.68,11,294.44,294.44,0,0,0,68.57,2.13,289.93,289.93,0,0,0,82.9-19.81c26.18-12.18,43.71-29.68,52.12-52a87.87,87.87,0,0,0,2.71-8.51c-2.24,2.69-4.63,5.2-6,6.84A125.6,125.6,0,0,1,1202.23,528.47Z" transform="translate(-670.67 -132.26)"/><path class="cls-3" d="M1052.67,488.29c-9.33-3.05-19.88-11.88-22.75-20.82a14.52,14.52,0,0,0-1.92,7.13c0,8.58,8,15.93,19.25,19a27.68,27.68,0,0,0,3-2.6A30.16,30.16,0,0,0,1052.67,488.29Z" transform="translate(-670.67 -132.26)"/><path class="cls-3" d="M1065.83,488.49a31.38,31.38,0,0,0,2.28,2.54,27.68,27.68,0,0,0,3,2.6c11.3-3.1,19.25-10.45,19.25-19a14.21,14.21,0,0,0-1.46-6.23C1085.56,477.19,1075,485.73,1065.83,488.49Z" transform="translate(-670.67 -132.26)"/><path class="cls-3" d="M1059.57,321.1s36.54-1.25,71.84,17.18c0,0,31.84-27.79,53.66-37.19,4.19-3.22,8.12-6,11.39-8.3a31.71,31.71,0,0,0-9.75,2.63c-12.77,5.58-37.44,21.33-50.1,33.26a4.69,4.69,0,0,1-5.22.84,183.72,183.72,0,0,0-49.86-15,141.58,141.58,0,0,0-21.86-1.83h-.21a141.58,141.58,0,0,0-21.86,1.83,185,185,0,0,0-49.86,15,4.69,4.69,0,0,1-5.22-.84c-12.66-11.93-37.33-27.68-50.1-33.26a30.43,30.43,0,0,0-10.84-2.69c4.34,3,10,7,15.94,11.79,9.9,5.27,25.79,15.35,46.37,33.76C983.89,338.28,1018.64,321.1,1059.57,321.1Z" transform="translate(-670.67 -132.26)"/><path class="cls-3" d="M1207.08,387.42a178.11,178.11,0,0,1,11.42,21.49,260.31,260.31,0,0,0,4.39-49.75c-.16-19.05-2.58-33.87-7.62-46.64-2-5.16-4.73-11.33-8.25-15.52-2.22,1.47-5.41,3.63-9.13,6.3C1202.3,315.65,1213.2,351.3,1207.08,387.42Z" transform="translate(-670.67 -132.26)"/><path class="cls-9" d="M1197.89,303.3c-11.54,8.28-28.12,21.44-36.18,33.8a178.72,178.72,0,0,1,22,19.95,194.86,194.86,0,0,1,21.63,27.55c.6.93,1.2,1.88,1.78,2.82C1213.2,351.3,1202.3,315.65,1197.89,303.3Z" transform="translate(-670.67 -132.26)"/><path class="cls-3" d="M896.25,359.16a260,260,0,0,0,4.37,49.65,178.71,178.71,0,0,1,11.15-20.89c-6.12-36.11,4.78-71.77,9.19-84.12-3.77-2.7-7-4.88-9.22-6.35-3.34,4.18-5.92,10.09-7.88,15.07C898.82,325.29,896.4,340.11,896.25,359.16Z" transform="translate(-670.67 -132.26)"/><path class="cls-9" d="M911.77,387.92c.58-.94,1.18-1.88,1.78-2.82a194.86,194.86,0,0,1,21.63-27.55,179.57,179.57,0,0,1,22-19.95c-8.06-12.36-24.64-25.52-36.18-33.8C916.55,316.15,905.65,351.81,911.77,387.92Z" transform="translate(-670.67 -132.26)"/><path class="cls-3" d="M1186,656.05a376.38,376.38,0,0,1-17.23,46.26q-9.46,20.72-19.37,33.57c2.39,0,4.71,0,7,.08,11.36.19,20.34.34,27.21-3.82,9.8-5.92,13.83-20.82,16-31.51,3.15-15.43,1.93-27.5-3.64-35.88A24.69,24.69,0,0,0,1186,656.05Z" transform="translate(-670.67 -132.26)"/><path class="cls-3" d="M908.85,678.19a43.1,43.1,0,0,1,5.25-16.6C884.25,644.36,880,611,879.51,597.48c-4.44,13.5-5,26.47-1.66,38.72C883.62,657.38,899.72,671.58,908.85,678.19Z" transform="translate(-670.67 -132.26)"/><path class="cls-3" d="M965,736l4-.06q-9.75-12.76-19-33.38a370.34,370.34,0,0,1-16.88-46.32c-5.78,2.94-15.55,10.79-15.23,30.31a2.62,2.62,0,0,1,0,.28,80.08,80.08,0,0,0,1.68,13.84c3.44,16.88,8.8,26.88,16.86,31.46C943.82,736.3,953.65,736.14,965,736Z" transform="translate(-670.67 -132.26)"/><path class="cls-3" d="M914.1,661.59c.44-.77.91-1.53,1.4-2.26a34.12,34.12,0,0,1,15.44-12.55q-.63-4.47-.94-8.69a71.83,71.83,0,0,1-24.91-15.65,79,79,0,0,1-15.7-21.64,92.23,92.23,0,0,1-5.61-14,94.33,94.33,0,0,0-4.27,10.71C880,611,884.25,644.36,914.1,661.59Z" transform="translate(-670.67 -132.26)"/><path class="cls-11" d="M1042.06,610.73v-5.9c-47.83-1.14-79.62-17.13-87.44-21.49v4.24a122.09,122.09,0,0,0,22.28,11.1C990.66,604,1012.89,610.29,1042.06,610.73Z" transform="translate(-670.67 -132.26)"/><path class="cls-12" d="M1042.06,604.83v-7q-14-.81-27.94-2.89a275,275,0,0,1-59.5-15.5v3.89C962.44,587.7,994.23,603.69,1042.06,604.83Z" transform="translate(-670.67 -132.26)"/><path class="cls-11" d="M1110.41,608a168.88,168.88,0,0,0,30-8.53,139.72,139.72,0,0,0,24.11-11.93V584c-7.56,4.25-39.87,20.67-88.63,21.62v5.3A170.61,170.61,0,0,0,1110.41,608Z" transform="translate(-670.67 -132.26)"/><path class="cls-12" d="M1164.51,584v-4.76a299.29,299.29,0,0,1-79.5,18q-4.56.39-9.13.64v7.72C1124.64,604.64,1157,588.22,1164.51,584Z" transform="translate(-670.67 -132.26)"/><path class="cls-8" d="M1051.46,604.89v4.62a27.89,27.89,0,0,1,15,0v-4.6Z" transform="translate(-670.67 -132.26)"/><path class="cls-13" d="M1066.48,598.24q-3.57.09-7.16.09-3.93,0-7.86-.11v6.67h15Z" transform="translate(-670.67 -132.26)"/><path class="cls-2" d="M1077.44,636.28a18.45,18.45,0,0,0-13.32-17.69c6.06,4.56,8.48,13.2,5.38,21.16-3.54,9.09-13,14-21.5,11.28a18.41,18.41,0,0,0,29.44-14.75Z" transform="translate(-670.67 -132.26)"/><path class="cls-14" d="M1069.5,639.75c3.1-8,.68-16.6-5.38-21.16A18.41,18.41,0,0,0,1048,651C1056.5,653.72,1066,648.84,1069.5,639.75Z" transform="translate(-670.67 -132.26)"/><path class="cls-15" d="M1228.26,519.33c9.76-25.92,8.56-57.79-3.57-94.74a265.41,265.41,0,0,0,7.59-65.51c-.17-20.24-2.8-36.13-8.27-50-2.86-7.26-6.54-15.34-12.18-20.65h0a4.62,4.62,0,0,0-2.49-2,21,21,0,0,0-12.95-3.05,40.79,40.79,0,0,0-13.44,3.42c-13,5.68-36.44,20.51-50.42,32.89a195.08,195.08,0,0,0-49.83-14.51,140.95,140.95,0,0,0-46.25,0,194.52,194.52,0,0,0-49.83,14.51c-14-12.38-37.44-27.21-50.42-32.89a40.72,40.72,0,0,0-13.44-3.42c-5.93-.36-11,1.17-14.75,4.41l-.07.06h0c-6,5.28-9.84,13.68-12.8,21.2-5.47,13.88-8.1,29.77-8.27,50a265.88,265.88,0,0,0,7.59,65.51c-12.12,37-13.32,68.82-3.56,94.74,9,24,27.3,42.79,54.35,56v12.22a34.13,34.13,0,0,0-9.42,11.89c-3.9,7.74-5.95,17.24-6.14,28.39a62,62,0,0,1-17.91-12,69.61,69.61,0,0,1-13.82-18.93,78.79,78.79,0,0,1-7.7-23.9,4.7,4.7,0,0,0-8.69-1.92c-14.26,23.63-18.55,46.38-12.76,67.61,3.84,14.08,12.33,27.54,24.57,38.92a101.9,101.9,0,0,0,15.21,11.72,90.7,90.7,0,0,0,1.77,13.19c4,19.73,10.83,31.73,21.42,37.74,9.65,5.49,21.2,5.3,33.43,5.1,3.67-.06,7.47-.12,11.36,0h.1a4.48,4.48,0,0,0,.64-.05q11.54,11,23.59,11.29c1,.09,3.76.31,7.34.31,7.67,0,19.14-1,25.39-6.44a13.58,13.58,0,0,0,3.74-5.11h43.58a13.58,13.58,0,0,0,3.74,5.11c6.25,5.43,17.72,6.44,25.38,6.44,3.59,0,6.35-.22,7.34-.31,8-.19,15.86-4,23.58-11.24h4c3.91-.08,7.66,0,11.29,0,2.27,0,4.49.08,6.66.08,9.58,0,18.06-.72,25.56-5.25,5-3,9-7.39,12.27-13.43s6-14.1,8.09-24.24c3.69-18.1,2-32.63-5.17-43.18a34.16,34.16,0,0,0-15.43-12.55c2.72-19.62,1.08-35.54-4.88-47.36a34.25,34.25,0,0,0-9.41-11.89V575.31C1201,562.12,1219.23,543.29,1228.26,519.33Zm-28.67,181.3c-2.18,10.69-6.21,25.59-16,31.51-6.87,4.16-15.85,4-27.21,3.82-2.27,0-4.59-.07-7-.08q9.9-12.84,19.37-33.57A376.38,376.38,0,0,0,1186,656.05a24.69,24.69,0,0,1,10,8.7C1201.52,673.13,1202.74,685.2,1199.59,700.63Zm-21.08-52.54h0a369.57,369.57,0,0,1-18.33,50.41c-6.6,14.44-13.39,25.91-20.19,34.11-.4.49-.81,1-1.22,1.43-.71.83-1.43,1.61-2.14,2.36a4.7,4.7,0,0,0-2.13,2.12c-6,5.64-11.83,8.55-17.44,8.64l-.38,0s-2.2.21-5.37.26c-1.63,0-3.54,0-5.55-.12-7.13-.4-12.43-1.82-14.93-4a3.9,3.9,0,0,1-1.49-2.84V677.21a4.69,4.69,0,0,0-3.74-4.6,4.32,4.32,0,0,0-.95-.1,4.69,4.69,0,0,0-4.7,4.7v58.71h-41.6V677.21a4.7,4.7,0,0,0-4.7-4.7,4.79,4.79,0,0,0-1.42.22,4.7,4.7,0,0,0-3.28,4.48V740.5a3.89,3.89,0,0,1-1.48,2.84c-2.72,2.36-8.26,3.51-13.91,3.94a74.24,74.24,0,0,1-11.94-.09l-.38,0c-7.17-.12-14.68-4.8-22.33-13.93l-.45-.53c-6.71-8.16-13.4-19.58-19.86-33.94a366.63,366.63,0,0,1-17.83-50l-1.57-14.32c-.7-14.81,1.91-24.28,4.61-30a26.89,26.89,0,0,1,6.18-8.69c2,1.32,5.17,3.19,9.33,5.32,2.08,1.07,4.42,2.2,7,3.36q3.13,1.39,6.75,2.82a180.73,180.73,0,0,0,26.89,8.09c1.41.31,2.83.61,4.26.89A210.42,210.42,0,0,0,1036.5,620a27.81,27.81,0,1,0,45.26.31,180.29,180.29,0,0,0,30.61-3.1c1.59-.3,3.17-.62,4.75-1a177.84,177.84,0,0,0,27-8.12c2.92-1.14,5.62-2.29,8.11-3.41,3-1.33,5.6-2.63,7.92-3.83,3.95-2.06,7-3.85,9-5.11a26.91,26.91,0,0,1,6.21,8.72C1178.78,611.76,1182.09,625.21,1178.51,648.09Zm-259,52.54a80.08,80.08,0,0,1-1.68-13.84,2.62,2.62,0,0,0,0-.28c-.32-19.52,9.45-27.37,15.23-30.31A370.34,370.34,0,0,0,950,702.52q9.27,20.6,19,33.38l-4,.06c-11.38.18-21.21.34-28.63-3.87C928.34,727.51,923,717.51,919.54,700.63Zm-40-103.15a94.33,94.33,0,0,1,4.27-10.71,92.23,92.23,0,0,0,5.61,14,79,79,0,0,0,15.7,21.64A71.83,71.83,0,0,0,930,638.09q.32,4.21.94,8.69a34.12,34.12,0,0,0-15.44,12.55c-.49.73-1,1.49-1.4,2.26a43.1,43.1,0,0,0-5.25,16.6c-9.13-6.61-25.23-20.81-31-42C874.51,624,875.07,611,879.51,597.48Zm161.09,38.8A18.44,18.44,0,1,1,1048,651,18.44,18.44,0,0,1,1040.6,636.28ZM1059,608.47a27.72,27.72,0,0,0-7.56,1V598.22q3.93.1,7.86.11,3.59,0,7.16-.09v11.25A27.82,27.82,0,0,0,1059,608.47Zm-104.4-20.89v-8.13a275,275,0,0,0,59.5,15.5q13.92,2.09,27.94,2.89v12.89c-29.17-.44-51.4-6.71-65.16-12.05A122.09,122.09,0,0,1,954.62,587.58Zm121.26,18v-7.72q4.57-.25,9.13-.64a299.29,299.29,0,0,0,79.5-18v8.33a139.72,139.72,0,0,1-24.11,11.93,168.88,168.88,0,0,1-30,8.53,170.61,170.61,0,0,1-34.53,2.89Zm139.39-293.07c5,12.77,7.46,27.59,7.62,46.64a260.31,260.31,0,0,1-4.39,49.75,178.11,178.11,0,0,0-11.42-21.49c-.58-.94-1.18-1.89-1.78-2.82a194.86,194.86,0,0,0-21.63-27.55,178.72,178.72,0,0,0-22-19.95c8.06-12.36,24.64-25.52,36.18-33.8,3.72-2.67,6.91-4.83,9.13-6.3C1210.54,301.19,1213.24,307.36,1215.27,312.52ZM911.74,297.45c2.22,1.47,5.45,3.65,9.22,6.35,11.54,8.28,28.12,21.44,36.18,33.8a179.57,179.57,0,0,0-22,19.95,194.86,194.86,0,0,0-21.63,27.55c-.6.94-1.2,1.88-1.78,2.82a178.71,178.71,0,0,0-11.15,20.89,260,260,0,0,1-4.37-49.65c.15-19.05,2.57-33.87,7.61-46.64C905.82,307.54,908.4,301.63,911.74,297.45Zm-8,128.84a166.41,166.41,0,0,1,17.57-35.93,184,184,0,0,1,20.48-26.16c13.09-14,24-21.31,24.13-21.38a4.7,4.7,0,0,0,1.57-6.08c-5.86-11.25-18.44-23-30-32.22-5.94-4.74-11.6-8.81-15.94-11.79a30.43,30.43,0,0,1,10.84,2.69c12.77,5.58,37.44,21.33,50.1,33.26a4.69,4.69,0,0,0,5.22.84,185,185,0,0,1,49.86-15,141.58,141.58,0,0,1,21.86-1.83h.21a141.58,141.58,0,0,1,21.86,1.83,183.72,183.72,0,0,1,49.86,15,4.69,4.69,0,0,0,5.22-.84c12.66-11.93,37.33-27.68,50.1-33.26a31.71,31.71,0,0,1,9.75-2.63c-3.27,2.26-7.2,5.08-11.39,8.3-12.47,9.57-27.24,22.67-33.74,35.14a4.7,4.7,0,0,0,1.56,6.08c.11.08,11,7.43,24.14,21.38a185.16,185.16,0,0,1,20.48,26.16,166.32,166.32,0,0,1,17.57,35.95,5.08,5.08,0,0,0,.4.85c8.22,24.75,11.33,46.94,9.31,66.3a96.37,96.37,0,0,1-2.62,14.56,87.87,87.87,0,0,1-2.71,8.51c-8.41,22.34-25.94,39.84-52.12,52a289.93,289.93,0,0,1-82.9,19.81,294.44,294.44,0,0,1-68.57-2.13,283.3,283.3,0,0,1-46.68-11A164.19,164.19,0,0,1,952,568.11h-.05c-26.24-12.18-43.81-29.7-52.23-52.07q-1.41-3.72-2.47-7.64A95.93,95.93,0,0,1,894.34,493C892.31,473.49,895.46,451.18,903.77,426.29Z" transform="translate(-670.67 -132.26)"/><path class="cls-16" d="M1077.32,521.07c-15.42-5.76-30.71-1.58-36.16.31a27.92,27.92,0,0,0,6.54,9.74,16,16,0,0,0,11,4.26h1a16,16,0,0,0,11-4.26A28.11,28.11,0,0,0,1077.32,521.07Z" transform="translate(-670.67 -132.26)"/><path class="cls-15" d="M1014.14,495.64c4,5.42,8.56,9.05,13.55,10.77a71.58,71.58,0,0,0,4.15,17,38.56,38.56,0,0,0,9.45,14.57,25.35,25.35,0,0,0,17.64,6.79h.49a25.35,25.35,0,0,0,17.64-6.79,38.56,38.56,0,0,0,9.45-14.57,72.08,72.08,0,0,0,4.15-17c5-1.72,9.58-5.35,13.55-10.77a50.79,50.79,0,0,0,6.49-12.13,4.69,4.69,0,0,0-8.87-3.08c-.07.19-6.69,18.66-19,17.71a22.1,22.1,0,0,1-11.71-4.51,27.68,27.68,0,0,1-3-2.6,31.38,31.38,0,0,1-2.28-2.54c9.17-2.76,19.73-11.3,23.06-20.12a13.72,13.72,0,0,0,.63-8.65c-2.06-7.33-10.35-10.79-17.31-12.51a51.44,51.44,0,0,0-23-.52c-6.55,1.34-14.15,3.83-18,9.53a12.38,12.38,0,0,0-1.62,3.5,13.27,13.27,0,0,0,.31,7.75c2.87,8.94,13.42,17.77,22.75,20.82a30.16,30.16,0,0,1-2.43,2.74,27.68,27.68,0,0,1-3,2.6,22.1,22.1,0,0,1-11.71,4.51c-12.28.94-18.9-17.37-19-17.71a4.69,4.69,0,0,0-8.87,3.08A50.79,50.79,0,0,0,1014.14,495.64Zm56.51,35.48a16,16,0,0,1-11,4.26h-1a16,16,0,0,1-11-4.26,27.92,27.92,0,0,1-6.54-9.74c5.45-1.89,20.74-6.07,36.16-.31A28.11,28.11,0,0,1,1070.65,531.12Zm-29.05-71.44c0-4.34,8-7.85,17.93-7.85s17.92,3.51,17.92,7.85-8,7.85-17.92,7.85S1041.6,464,1041.6,459.68Z" transform="translate(-670.67 -132.26)"/><ellipse class="cls-17" cx="388.85" cy="327.42" rx="17.92" ry="7.85"/><path class="cls-8" d="M993.66,403.1c7.09.11,15.39-4,16.78-11.58,1.23-6.66-3.09-14.73-9.12-17.69-6.8-3.33-15.08-.38-20.91,3.61-6.39,4.36-10.32,11-5,17.66C979.54,400.22,987.29,403,993.66,403.1Z" transform="translate(-670.67 -132.26)"/><path class="cls-15" d="M948.05,438.48c.62,20.53,18.68,18.66,24.88,18.66s27.13-3.75,25.1-20c-1.82-14.55-14.19-24-27.62-22.42a26.58,26.58,0,0,0-7.11,1.88C954.12,420.43,947.74,428.2,948.05,438.48Zm27.92,0a7.93,7.93,0,1,1,7.92-7.93A7.93,7.93,0,0,1,976,438.48Z" transform="translate(-670.67 -132.26)"/><circle class="cls-8" cx="975.97" cy="430.55" r="7.93" transform="matrix(0.99, -0.16, 0.16, 0.99, -727.04, 29.64)"/><path class="cls-8" d="M1125,403.1c6.36-.1,14.11-2.88,18.22-8,5.35-6.67,1.41-13.3-5-17.66-5.84-4-14.12-6.94-20.91-3.61-6,3-10.35,11-9.13,17.69C1109.58,399.1,1117.87,403.21,1125,403.1Z" transform="translate(-670.67 -132.26)"/><path class="cls-15" d="M1120.6,437.15c-2,16.24,18.9,20,25.1,20s24.25,1.87,24.88-18.66c.31-10.28-6.08-18.05-15.25-21.87a26.55,26.55,0,0,0-7.12-1.88C1134.78,413.15,1122.42,422.6,1120.6,437.15Zm30-6.6a7.93,7.93,0,1,1-7.92-7.93A7.92,7.92,0,0,1,1150.58,430.55Z" transform="translate(-670.67 -132.26)"/><circle class="cls-8" cx="471.98" cy="298.29" r="7.93"/></g><path class="cls-4" d="M851.33,435.15a22.63,22.63,0,0,0-13-7.56,18.71,18.71,0,0,1,4,3.54c7.58,9,5.43,23.27-4.78,31.87s-24.64,8.28-32.22-.72a19,19,0,0,1-2-2.82,22.42,22.42,0,0,0,5.07,11.81c8.79,10.43,25.51,10.81,37.36.83S860.11,445.58,851.33,435.15Z" transform="translate(-670.67 -132.26)"/><path class="cls-6" d="M817.29,423.87l1.27-.75a22.35,22.35,0,0,1,3.9-1.68,23.93,23.93,0,0,1,6.69-1.14A22.51,22.51,0,0,1,843,424.59a19.87,19.87,0,0,1,2.25,1.9l.54.51.58.66.86,1a9.38,9.38,0,0,1,.94,1.25l1,1.45c.52,1,1,1.91,1.48,2.93a22.62,22.62,0,0,1,1.08,3.16c.13.55.27,1.1.41,1.66s.16,1.12.25,1.68a27.8,27.8,0,0,1-1.72,13.75,31.35,31.35,0,0,1-3.28,6.32,34.71,34.71,0,0,1-4.64,5.41l-1.32,1.2-.08.08-.27.21-.15.11-.3.23-.59.45c-.44.31-.72.58-1.28.93l-1.62,1a30.22,30.22,0,0,1-3.2,1.7c-1.09.48-2.2.89-3.3,1.28a30,30,0,0,1-13.73,1.14A25.45,25.45,0,0,1,805,469.33c-.82-.63-1.51-1.41-2.24-2.09s-1.27-1.52-1.87-2.27l-.22-.3,0-.06-.07-.13-.15-.27-.3-.52-.59-1a17.74,17.74,0,0,1-1.14-2.45,21.76,21.76,0,0,1-1.35-4.87c-.11-.77-.11-1.53-.16-2.25a10.44,10.44,0,0,1,0-2.09,22.37,22.37,0,0,1,1.42-6.66c.34-.86.65-1.62,1-2.26l.92-1.55.78-1.24s-.06.51-.18,1.46q-.1.69-.24,1.71c0,.68,0,1.45-.08,2.3a17,17,0,0,0,.15,2.77,21,21,0,0,0,.53,3.14,10.78,10.78,0,0,0,.48,1.64c.2.55.35,1.12.6,1.67a17.8,17.8,0,0,0,1.77,3.13,10.46,10.46,0,0,0,1.15,1.53l.79.89.4.45.2.23.1.11,0,.06-.15-.2,0,0c.53.41,1,.87,1.55,1.28s1.1.79,1.73,1.09A19,19,0,0,0,818,464.9a23.59,23.59,0,0,0,9.07-1.52c.73-.32,1.47-.62,2.18-1l1-.59a6.34,6.34,0,0,0,1-.57l.9-.57c.3-.17.76-.58,1.13-.86l.59-.46.3-.23.15-.12,0,0c-.08,0,.21-.18-.16.12l0-.05.89-.84a23.34,23.34,0,0,0,5.58-7.74l.47-1.09c.12-.37.24-.74.37-1.1a22.47,22.47,0,0,0,.63-2.23,21.24,21.24,0,0,0,.42-4.46l0-1.1-.14-1.08a21,21,0,0,0-.4-2.1c-.17-.68-.44-1.34-.64-2l-.37-.81a3.61,3.61,0,0,0-.46-.94l-.67-1.1-.17-.27-.08-.13,0-.07.12.15,0,0-.3-.41a17.76,17.76,0,0,0-1.27-1.57,17,17,0,0,0-2.93-2.59,20.15,20.15,0,0,0-6.56-3.05,26.89,26.89,0,0,0-5.9-.92,36.6,36.6,0,0,0-4,.13Z" transform="translate(-670.67 -132.26)"/><path class="cls-4" d="M1080.85,307.15a56.17,56.17,0,0,0-32.24-18.76,46.32,46.32,0,0,1,9.86,8.79c18.82,22.34,13.48,57.74-11.86,79.11s-61.16,20.53-80-1.8a45.69,45.69,0,0,1-4.85-7,55.54,55.54,0,0,0,12.57,29.32c21.82,25.89,63.32,26.84,92.73,2.07S1102.65,333.05,1080.85,307.15Z" transform="translate(-670.67 -132.26)"/><path class="cls-6" d="M996.38,279.16l3.14-1.86a57.94,57.94,0,0,1,9.69-4.17,59.38,59.38,0,0,1,16.6-2.82A55.9,55.9,0,0,1,1060.15,281a48.82,48.82,0,0,1,5.58,4.69l1.36,1.29,1.44,1.64,2.13,2.38a23.47,23.47,0,0,1,2.33,3.09c.79,1.2,1.58,2.4,2.39,3.61,1.28,2.39,2.58,4.74,3.66,7.27a53.76,53.76,0,0,1,2.68,7.85c.34,1.36.67,2.72,1,4.1s.42,2.78.63,4.19a68.7,68.7,0,0,1-4.27,34.11,78.26,78.26,0,0,1-8.12,15.68,87.45,87.45,0,0,1-11.52,13.44l-3.27,3-.21.18-.67.53-.37.28-.74.56L1052.7,390c-1.07.78-1.78,1.43-3.16,2.31l-4,2.57a68.48,68.48,0,0,1-8,4.23c-2.68,1.19-5.44,2.21-8.18,3.18a74.26,74.26,0,0,1-34.08,2.83A63,63,0,0,1,965.9,392a72.35,72.35,0,0,1-5.55-5.19c-1.68-1.83-3.17-3.77-4.64-5.64l-.56-.73-.09-.16-.19-.33-.37-.65-.74-1.3-1.47-2.56a41.45,41.45,0,0,1-2.81-6.07c-2-4.35-2.54-8.32-3.35-12.09-.28-1.9-.29-3.79-.42-5.58a25.71,25.71,0,0,1,0-5.19A55.39,55.39,0,0,1,949.22,330c.85-2.15,1.61-4,2.36-5.61l2.29-3.85c1.26-2,1.94-3.09,1.94-3.09s-.16,1.26-.47,3.63c-.16,1.15-.36,2.56-.59,4.23,0,1.7-.09,3.62-.19,5.71a42.91,42.91,0,0,0,.36,6.89,52.41,52.41,0,0,0,1.32,7.77,23.32,23.32,0,0,0,1.2,4.08c.5,1.36.87,2.78,1.48,4.15,1.42,2.63,2.58,5.67,4.41,7.77a25.54,25.54,0,0,0,2.84,3.81l2,2.2,1,1.12.5.56.24.28.13.14c.12.15-.78-1-.37-.49l.06.05c1.33,1,2.52,2.17,3.86,3.17s2.73,2,4.28,2.72A47.17,47.17,0,0,0,998.12,381a58.73,58.73,0,0,0,22.51-3.78c1.81-.78,3.63-1.54,5.4-2.43l2.62-1.45a16.45,16.45,0,0,0,2.42-1.42l2.24-1.42c.74-.43,1.89-1.43,2.81-2.12l1.47-1.15.73-.57.37-.29.09-.07-.39.31.13-.13,2.21-2.07a57.83,57.83,0,0,0,13.85-19.23l1.17-2.68c.3-.92.58-1.84.91-2.75a46.69,46.69,0,0,0,2.61-16.61l0-2.73-.35-2.66a49.91,49.91,0,0,0-1-5.21c-.42-1.69-1.07-3.34-1.59-4.94l-.91-2a10.23,10.23,0,0,0-1.13-2.33c-.56-.91-1.12-1.82-1.68-2.71l-.41-.68-.21-.33-.1-.17c-.1-.13.63.79.3.37l-.05-.06-.75-1a44,44,0,0,0-3.13-3.89,43.13,43.13,0,0,0-7.28-6.42,50.53,50.53,0,0,0-16.28-7.58,66.66,66.66,0,0,0-14.66-2.27,89.26,89.26,0,0,0-10,.3Z" transform="translate(-670.67 -132.26)"/><path class="cls-4" d="M962.89,641.67a41.19,41.19,0,0,0-23.66-13.77,34.2,34.2,0,0,1,7.24,6.45c13.81,16.4,9.89,42.38-8.71,58.06s-44.89,15.07-58.69-1.32a34,34,0,0,1-3.56-5.14,40.73,40.73,0,0,0,9.23,21.51c16,19,46.47,19.7,68,1.52S978.89,660.68,962.89,641.67Z" transform="translate(-670.67 -132.26)"/><path class="cls-6" d="M900.89,621.12l2.31-1.36a42.48,42.48,0,0,1,7.11-3.07,44.13,44.13,0,0,1,12.18-2.07,41.12,41.12,0,0,1,25.21,7.82,37.66,37.66,0,0,1,4.1,3.45l1,1,1.06,1.2,1.56,1.74a18.67,18.67,0,0,1,1.72,2.27c.57.88,1.16,1.76,1.74,2.65,1,1.75,1.9,3.48,2.69,5.34a38.7,38.7,0,0,1,2,5.76c.25,1,.49,2,.74,3s.31,2.05.46,3.08a50.43,50.43,0,0,1-3.13,25,57.92,57.92,0,0,1-6,11.51,64.14,64.14,0,0,1-8.45,9.86l-2.41,2.18-.15.14-.49.39-.27.2-.55.41-1.09.83c-.79.57-1.31,1-2.32,1.69L937,706a51.78,51.78,0,0,1-5.84,3.1c-2,.88-4,1.62-6,2.34a54.43,54.43,0,0,1-25,2.07,46.23,46.23,0,0,1-21.59-9.6,51,51,0,0,1-4.07-3.81c-1.23-1.34-2.32-2.76-3.4-4.13l-.41-.54-.07-.12-.14-.24-.27-.48-.55-1c-.35-.63-.72-1.26-1.07-1.88a31.71,31.71,0,0,1-2.07-4.45,40.2,40.2,0,0,1-2.46-8.88c-.2-1.4-.21-2.78-.3-4.09a18.75,18.75,0,0,1,0-3.82,40.65,40.65,0,0,1,2.57-12.12c.63-1.57,1.19-2.95,1.74-4.12l1.68-2.82,1.42-2.27-.34,2.66c-.12.85-.27,1.89-.44,3.11s-.06,2.65-.14,4.19a31.15,31.15,0,0,0,.27,5.06,40.16,40.16,0,0,0,1,5.7,17.85,17.85,0,0,0,.89,3c.36,1,.63,2.05,1.08,3.05,1.05,1.93,1.9,4.16,3.24,5.71a19.84,19.84,0,0,0,2.08,2.78l1.44,1.62.73.82.37.42.18.2.1.11c.08.1-.57-.74-.27-.37l0,0c1,.74,1.85,1.59,2.83,2.33s2,1.45,3.15,2a34.53,34.53,0,0,0,14.88,4.23,43.18,43.18,0,0,0,16.52-2.77c1.33-.58,2.67-1.13,4-1.79l1.92-1.06a12.54,12.54,0,0,0,1.77-1l1.65-1c.54-.31,1.38-1,2.06-1.56l1.08-.84.54-.42.27-.21.06,0-.28.23.1-.1,1.61-1.52a42.43,42.43,0,0,0,10.17-14.11l.86-2c.22-.67.42-1.35.67-2a34.68,34.68,0,0,0,1.92-12.18l0-2-.25-1.95c-.1-1.33-.51-2.55-.73-3.83s-.79-2.45-1.17-3.62l-.67-1.49a7.64,7.64,0,0,0-.83-1.71l-1.23-2-.31-.5-.15-.24-.07-.12c-.08-.1.46.58.22.27l0-.05-.56-.74a31.66,31.66,0,0,0-7.64-7.57,36.92,36.92,0,0,0-11.94-5.56,48.9,48.9,0,0,0-10.76-1.67,64.48,64.48,0,0,0-7.33.23Z" transform="translate(-670.67 -132.26)"/><path class="cls-18" d="M1233.07,696.31a41.24,41.24,0,0,0-23.66-13.77,34.23,34.23,0,0,1,7.24,6.45c13.81,16.4,9.89,42.38-8.71,58.06s-44.89,15.07-58.69-1.32a34,34,0,0,1-3.56-5.14,40.8,40.8,0,0,0,9.23,21.52c16,19,46.47,19.69,68,1.52S1249.07,715.32,1233.07,696.31Z" transform="translate(-670.67 -132.26)"/><path class="cls-6" d="M1171.08,675.76l2.31-1.36a42.06,42.06,0,0,1,7.1-3.06,43.82,43.82,0,0,1,12.18-2.07,40.94,40.94,0,0,1,25.21,7.82,35.59,35.59,0,0,1,4.1,3.44l1,1,1.06,1.2,1.56,1.74a17.7,17.7,0,0,1,1.72,2.27c.57.88,1.16,1.77,1.74,2.65,1,1.76,1.9,3.48,2.7,5.34a40.26,40.26,0,0,1,2,5.76c.25,1,.49,2,.74,3s.31,2,.46,3.07a50.42,50.42,0,0,1-3.13,25,57.38,57.38,0,0,1-6,11.51,64.14,64.14,0,0,1-8.45,9.86l-2.41,2.18-.15.14-.49.39-.27.21-.55.41-1.08.82c-.79.57-1.32,1-2.32,1.7l-3,1.88a48.73,48.73,0,0,1-5.84,3.1c-2,.88-4,1.62-6,2.34a54.3,54.3,0,0,1-25,2.07,46.27,46.27,0,0,1-21.59-9.59c-1.49-1.15-2.75-2.57-4.07-3.81s-2.32-2.77-3.4-4.14l-.41-.54-.07-.12-.14-.24-.27-.48-.55-1c-.35-.63-.71-1.26-1.07-1.88a30.16,30.16,0,0,1-2.06-4.45,39.14,39.14,0,0,1-2.46-8.88c-.21-1.39-.21-2.78-.31-4.09a18.65,18.65,0,0,1,0-3.81,41,41,0,0,1,2.57-12.13c.63-1.57,1.19-2.95,1.74-4.11l1.68-2.83,1.42-2.27s-.12.93-.34,2.67c-.12.84-.27,1.88-.44,3.1,0,1.25-.06,2.66-.14,4.19a31.1,31.1,0,0,0,.27,5.06,39.21,39.21,0,0,0,1,5.71,17.16,17.16,0,0,0,.88,3c.36,1,.64,2,1.08,3,1.05,1.93,1.9,4.16,3.24,5.71a19.26,19.26,0,0,0,2.09,2.79l1.44,1.62.73.82.36.41.18.21.1.1c.08.11-.57-.74-.27-.36l0,0c1,.74,1.85,1.6,2.83,2.33a36.48,36.48,0,0,0,3.15,2,34.57,34.57,0,0,0,14.88,4.23,43,43,0,0,0,16.52-2.77c1.33-.57,2.67-1.13,4-1.79l1.92-1.06a12.3,12.3,0,0,0,1.78-1l1.64-1c.54-.32,1.39-1.06,2.07-1.56l1.07-.84.54-.42.27-.22.07,0c-.14.11.39-.32-.29.23l.1-.09,1.62-1.53a42.3,42.3,0,0,0,10.16-14.11l.86-2c.22-.67.42-1.35.67-2a37.21,37.21,0,0,0,1.14-4.06,38.28,38.28,0,0,0,.78-8.13l0-2-.25-1.95c-.1-1.33-.51-2.54-.73-3.82s-.79-2.46-1.17-3.63l-.67-1.48a7.08,7.08,0,0,0-.83-1.72l-1.23-2-.3-.49-.16-.25-.07-.12c-.07-.1.46.58.22.27l0,0-.56-.75a31.39,31.39,0,0,0-7.64-7.56,37.16,37.16,0,0,0-11.94-5.57,49.42,49.42,0,0,0-10.76-1.67,69.68,69.68,0,0,0-7.33.23Z" transform="translate(-670.67 -132.26)"/><path class="cls-4" d="M1310,474.65a36.69,36.69,0,0,0-21-12.24,30.1,30.1,0,0,1,6.43,5.74c12.27,14.56,8.79,37.65-7.73,51.58s-39.88,13.39-52.15-1.18a29,29,0,0,1-3.16-4.56,36.2,36.2,0,0,0,8.2,19.11c14.22,16.89,41.29,17.5,60.46,1.35S1324.25,491.54,1310,474.65Z" transform="translate(-670.67 -132.26)"/><path class="cls-6" d="M1255,456.39l2.06-1.21a36.67,36.67,0,0,1,6.31-2.72,38.91,38.91,0,0,1,10.82-1.84,36.44,36.44,0,0,1,14.63,2.64,35.94,35.94,0,0,1,7.77,4.31,32.43,32.43,0,0,1,3.64,3.06l.88.84.94,1.07,1.39,1.55a15.54,15.54,0,0,1,1.52,2l1.55,2.36c.84,1.55,1.69,3.09,2.4,4.74a35,35,0,0,1,1.74,5.12q.33,1.32.66,2.67c.14.9.27,1.81.41,2.73a44.85,44.85,0,0,1-2.78,22.25,50.85,50.85,0,0,1-5.3,10.22,56.58,56.58,0,0,1-7.51,8.76l-2.13,1.94-.14.12-.43.35-.25.18-.48.37-1,.73c-.7.51-1.16.93-2.06,1.5l-2.62,1.68a47.73,47.73,0,0,1-5.19,2.76c-1.75.77-3.55,1.43-5.34,2.07a48.31,48.31,0,0,1-22.22,1.84,41.08,41.08,0,0,1-19.17-8.52,46.86,46.86,0,0,1-3.62-3.39c-1.09-1.19-2.07-2.46-3-3.67l-.37-.48-.06-.11-.12-.21-.24-.43-.49-.84-1-1.67a27.41,27.41,0,0,1-1.84-4,35.33,35.33,0,0,1-2.18-7.88c-.18-1.24-.19-2.48-.27-3.64a16.71,16.71,0,0,1,0-3.39,36.41,36.41,0,0,1,2.29-10.77c.56-1.4,1.06-2.62,1.54-3.66l1.5-2.51,1.26-2s-.11.82-.3,2.36c-.11.75-.24,1.68-.39,2.76s-.06,2.36-.13,3.73a28.51,28.51,0,0,0,.24,4.49,35.37,35.37,0,0,0,.86,5.07,17,17,0,0,0,.78,2.66c.33.88.57,1.81,1,2.7.93,1.72,1.68,3.7,2.87,5.07a17.05,17.05,0,0,0,1.86,2.48l1.28,1.44.64.73.33.36.16.19.09.09-.25-.32,0,0c.87.66,1.64,1.41,2.52,2.07s1.78,1.29,2.79,1.77a30.67,30.67,0,0,0,13.23,3.76,38.3,38.3,0,0,0,14.68-2.46c1.17-.51,2.37-1,3.52-1.59l1.71-.94a10.85,10.85,0,0,0,1.57-.93L1279,516c.48-.28,1.22-.94,1.83-1.39l1-.75.48-.37.24-.19.06,0-.25.2.08-.08,1.44-1.36a37.66,37.66,0,0,0,9-12.53l.77-1.75c.19-.6.37-1.2.59-1.8a32.69,32.69,0,0,0,1-3.6,35,35,0,0,0,.69-7.22l0-1.78-.23-1.74a31.88,31.88,0,0,0-.65-3.4c-.28-1.1-.7-2.18-1-3.22l-.59-1.32a6.43,6.43,0,0,0-.74-1.52l-1.09-1.77-.27-.44-.14-.22-.06-.11c-.07-.08.41.52.19.25l0,0-.49-.66a28.33,28.33,0,0,0-2-2.54,28,28,0,0,0-4.75-4.19,32.92,32.92,0,0,0-10.61-4.94,43,43,0,0,0-9.56-1.48,58.55,58.55,0,0,0-6.51.2Z" transform="translate(-670.67 -132.26)"/></svg>